<?xml version="1.0" standalone="no"?>
<!DOCTYPE svg PUBLIC "-//W3C//DTD SVG 20010904//EN"
 "http://www.w3.org/TR/2001/REC-SVG-20010904/DTD/svg10.dtd">
<svg version="1.0" xmlns="http://www.w3.org/2000/svg"
 width="2623.000000pt" height="1156.000000pt" viewBox="0 0 2623.000000 1156.000000"
 preserveAspectRatio="xMidYMid meet">

<g transform="translate(0.000000,1156.000000) scale(0.100000,-0.100000)"
fill="#000000" stroke="none">
<path d="M9791 11543 c26 -33 44 -42 80 -43 28 0 38 5 42 20 3 11 16 24 29 29
20 9 18 10 -18 10 -28 1 -44 -4 -48 -14 -3 -8 -17 -15 -31 -15 -14 0 -28 7
-31 15 -4 8 -13 15 -21 15 -13 0 -13 -2 -2 -17z"/>
<path d="M10068 11553 c23 -2 61 -2 85 0 23 2 4 4 -43 4 -47 0 -66 -2 -42 -4z"/>
<path d="M10413 11553 c9 -2 25 -2 35 0 9 3 1 5 -18 5 -19 0 -27 -2 -17 -5z"/>
<path d="M10663 11542 c10 -10 17 -29 17 -41 0 -12 11 -34 25 -49 14 -15 25
-35 25 -44 0 -10 5 -18 10 -18 6 0 10 -51 10 -134 0 -110 3 -135 15 -140 9 -3
15 -19 15 -41 0 -22 -6 -38 -15 -41 -8 -4 -15 -12 -15 -19 0 -7 7 -18 15 -25
8 -7 15 -21 15 -31 0 -11 5 -19 10 -19 6 0 10 -18 10 -40 0 -22 -4 -40 -10
-40 -5 0 -10 -9 -10 -19 0 -11 5 -23 10 -26 6 -3 10 -27 10 -51 0 -37 -6 -51
-29 -75 -18 -17 -40 -29 -56 -29 -15 0 -36 -11 -49 -25 -13 -14 -30 -25 -37
-25 -8 0 -45 -30 -82 -68 -65 -65 -67 -69 -67 -118 0 -27 5 -55 11 -61 6 -6 9
-26 7 -44 -3 -33 -4 -34 -53 -37 -27 -1 -59 -7 -70 -12 -11 -5 -31 -10 -45
-12 -52 -6 -27 -88 27 -88 14 0 31 7 39 15 16 15 60 20 88 9 13 -5 16 -22 16
-78 0 -40 -5 -77 -11 -83 -8 -8 -8 -13 0 -17 6 -4 11 -20 11 -35 0 -16 10 -37
25 -51 27 -25 34 -77 14 -97 -8 -8 -8 -13 0 -17 6 -4 11 -22 11 -40 0 -35 -25
-66 -52 -66 -9 0 -18 -7 -22 -15 -3 -8 -14 -15 -24 -15 -23 0 -52 -30 -52 -53
0 -14 -10 -17 -55 -17 -47 0 -55 3 -55 18 0 10 -11 29 -25 42 -14 13 -25 31
-25 41 0 9 -7 19 -15 23 -9 3 -15 19 -15 41 0 22 6 38 15 41 22 9 20 77 -3 97
-10 10 -30 17 -44 17 -14 0 -31 7 -38 15 -7 8 -21 15 -31 15 -12 0 -19 7 -19
19 0 10 -7 24 -15 31 -12 10 -15 36 -15 116 0 86 -3 104 -15 104 -12 0 -15
-18 -15 -104 0 -59 4 -108 10 -111 6 -3 10 -14 10 -25 0 -10 7 -20 15 -24 8
-3 15 -15 15 -26 0 -11 7 -20 15 -20 8 0 23 -4 33 -9 9 -6 29 -12 45 -16 20
-4 27 -11 27 -30 0 -13 -4 -27 -10 -30 -5 -3 -10 -26 -10 -51 0 -24 5 -44 10
-44 6 0 10 -8 10 -18 0 -10 11 -29 25 -42 20 -19 25 -33 25 -72 0 -26 -4 -48
-10 -48 -5 0 -10 -9 -10 -19 0 -11 5 -23 10 -26 6 -3 10 -47 10 -97 0 -75 3
-93 18 -104 16 -13 16 -15 0 -28 -36 -27 -21 -53 97 -170 63 -63 115 -121 115
-130 0 -13 13 -16 70 -16 54 0 72 -4 76 -15 4 -8 14 -15 24 -15 11 0 22 -4 25
-10 3 -5 24 -10 45 -10 21 0 42 5 45 10 19 31 115 -29 115 -73 0 -9 4 -17 9
-17 5 0 11 -10 13 -22 2 -13 11 -24 21 -26 27 -5 57 -34 57 -54 0 -9 5 -20 10
-23 6 -3 10 -19 10 -34 0 -18 13 -39 40 -66 22 -21 40 -47 40 -57 0 -10 5 -18
10 -18 6 0 10 -8 10 -18 0 -10 15 -32 33 -50 31 -30 37 -32 108 -32 44 0 80
-5 87 -12 9 -9 17 -9 35 1 43 23 62 11 65 -42 2 -35 -1 -49 -12 -53 -21 -8
-21 -60 -1 -68 8 -3 15 -14 15 -25 0 -11 5 -23 10 -26 6 -3 10 -13 10 -21 0
-8 18 -32 40 -53 39 -37 40 -40 40 -103 0 -56 3 -68 25 -88 14 -13 25 -32 25
-42 0 -16 9 -18 73 -18 70 0 75 2 105 33 18 18 32 39 32 45 0 7 9 22 20 34 18
20 21 20 38 5 10 -9 24 -17 30 -17 18 0 52 -33 52 -50 0 -9 5 -21 12 -28 9 -9
6 -18 -15 -40 -20 -21 -27 -38 -27 -69 0 -24 -5 -43 -12 -45 -22 -8 18 -38 48
-38 19 0 40 -14 75 -50 36 -38 55 -50 77 -50 19 0 35 -8 48 -25 10 -14 26 -25
34 -25 9 0 34 -18 55 -40 21 -22 47 -40 57 -40 10 0 18 -4 18 -10 0 -17 -34
-50 -52 -50 -9 0 -20 -4 -23 -10 -3 -5 -24 -10 -46 -10 -62 0 -79 -24 -79
-114 0 -56 4 -75 15 -80 18 -7 20 -37 3 -54 -9 -9 -6 -18 12 -37 18 -19 21
-28 12 -37 -15 -15 -16 -114 -2 -123 13 -8 13 -68 -1 -82 -8 -8 -8 -13 0 -17
6 -4 11 -14 11 -21 0 -18 55 -75 73 -75 19 0 57 -43 57 -63 0 -9 5 -17 10 -17
6 0 10 -4 10 -10 0 -17 -34 -50 -51 -50 -20 0 -49 -31 -49 -53 0 -9 -4 -17
-10 -17 -5 0 -10 -15 -10 -34 0 -24 -7 -38 -25 -52 -29 -22 -36 -84 -10 -84 8
0 15 8 15 18 0 10 11 29 25 42 15 14 25 35 25 51 0 14 7 32 15 39 8 7 15 21
15 31 0 12 7 19 19 19 10 0 24 7 31 15 7 8 21 15 31 15 30 0 26 70 -6 100 -14
13 -25 29 -25 37 0 17 -36 53 -53 53 -28 0 -47 36 -47 87 0 33 -5 55 -15 63
-9 8 -15 30 -15 57 0 30 5 45 15 49 8 4 15 12 15 19 0 7 -7 18 -15 25 -9 8
-15 30 -15 56 0 24 -5 44 -10 44 -7 0 -10 29 -8 78 l3 77 48 3 c26 2 47 7 47
13 0 5 8 9 18 9 10 0 29 11 42 25 13 14 31 25 41 25 9 0 19 7 23 15 4 11 22
15 76 15 l70 0 0 28 c0 35 37 72 73 72 14 0 29 5 32 10 3 6 15 10 26 10 12 0
19 7 19 18 0 10 12 29 26 43 23 22 27 22 38 8 6 -9 20 -18 31 -20 12 -3 21
-14 23 -27 2 -12 8 -22 13 -22 5 0 9 -15 9 -34 0 -21 6 -36 15 -40 9 -3 15
-19 15 -41 0 -19 5 -35 10 -35 6 0 10 -14 10 -30 0 -20 9 -39 25 -54 14 -13
25 -30 25 -38 0 -9 7 -21 15 -28 8 -7 15 -25 15 -39 0 -35 47 -81 83 -81 15 0
27 5 27 10 0 6 8 10 19 10 10 0 24 7 31 15 8 10 30 15 63 15 42 0 56 5 79 27
l29 27 23 -27 c18 -21 32 -27 65 -27 22 0 41 5 41 10 0 6 26 10 59 10 43 0 60
4 65 15 3 8 13 15 23 15 9 0 29 12 45 27 l27 26 45 -45 c24 -25 46 -54 48 -64
3 -16 14 -19 64 -22 45 -2 64 1 74 13 7 9 29 15 52 15 50 0 68 18 68 68 0 28
7 45 25 62 20 19 25 33 25 75 0 47 3 54 48 98 26 26 55 47 64 47 10 0 18 10
20 22 2 13 11 24 23 27 11 2 29 14 40 27 20 23 27 24 136 24 l115 0 34 35 c19
19 42 35 52 35 11 0 18 7 18 18 0 10 12 29 26 43 24 22 26 23 38 7 17 -23 98
-25 116 -3 7 8 20 15 29 15 9 0 25 11 35 25 12 17 29 25 48 25 30 0 88 49 88
74 0 15 32 46 48 46 7 0 45 34 86 75 41 41 81 75 89 75 8 0 20 7 27 15 8 9 30
15 56 15 l44 0 0 44 c0 25 5 48 10 51 6 3 10 15 10 26 0 11 7 22 15 25 8 4 15
14 15 24 0 31 33 50 86 50 43 0 54 4 82 33 18 18 32 39 32 46 0 8 11 24 25 37
14 13 25 30 25 38 0 8 5 18 10 21 6 3 10 30 10 59 0 47 3 55 40 91 22 21 40
47 40 57 0 10 5 18 10 18 6 0 10 19 10 43 0 33 6 49 23 65 30 28 48 28 77 -3
23 -25 80 -35 80 -15 0 6 25 10 55 10 65 0 95 22 95 70 0 17 5 30 10 30 6 0
10 8 10 18 0 10 23 40 50 67 28 27 50 56 50 64 0 22 49 61 77 61 12 0 23 6 23
13 0 19 43 57 63 57 10 0 17 8 17 19 0 11 5 23 10 26 6 3 10 14 10 23 0 10 8
25 18 33 21 18 81 49 94 49 5 0 42 34 82 75 40 41 80 75 87 75 20 0 69 51 69
72 0 10 7 21 15 24 8 4 15 18 15 34 0 16 -7 30 -15 34 -10 4 -15 19 -15 49 0
27 6 49 15 57 9 7 15 29 15 51 0 50 25 79 67 79 25 0 33 4 33 18 0 27 42 62
73 62 23 0 27 4 27 28 0 36 37 72 73 72 18 0 27 5 27 16 0 19 114 134 133 134
7 0 62 50 122 110 60 61 115 110 122 110 26 0 92 78 95 112 2 24 9 34 23 36
24 5 125 101 125 120 0 7 38 51 84 98 69 69 90 84 115 84 17 0 31 5 31 10 0
17 25 11 48 -10 18 -17 35 -20 106 -20 62 0 89 -4 100 -15 10 -10 35 -15 76
-15 41 0 66 5 76 15 9 8 19 15 24 15 5 0 15 -7 24 -15 16 -17 111 -21 121 -6
3 6 19 17 37 25 34 18 148 22 148 6 0 -6 75 -10 204 -10 169 0 206 -3 216 -15
10 -12 37 -15 126 -15 73 0 122 -5 137 -12 38 -22 117 -102 117 -119 0 -9 7
-19 15 -23 11 -4 15 -22 15 -74 0 -64 -2 -70 -33 -100 -18 -18 -41 -32 -50
-32 -10 0 -17 -8 -17 -18 0 -10 -11 -29 -25 -42 -22 -21 -25 -32 -25 -92 0
-39 4 -68 10 -68 6 0 10 -15 10 -34 0 -28 5 -36 33 -50 17 -9 39 -20 47 -25
46 -25 62 -31 78 -31 24 0 72 -41 72 -61 0 -8 17 -32 38 -52 35 -35 42 -37 99
-37 41 0 66 -5 77 -15 11 -12 41 -15 131 -15 113 0 117 -1 145 -27 47 -45 58
-53 73 -53 7 0 18 -5 24 -11 6 -6 38 -13 72 -16 49 -5 61 -9 61 -23 0 -10 7
-20 15 -24 8 -3 15 -14 15 -24 0 -11 -7 -25 -15 -32 -8 -7 -15 -21 -15 -31 0
-11 -4 -19 -10 -19 -6 0 -10 -38 -10 -93 0 -87 -2 -95 -25 -117 -14 -13 -25
-35 -25 -50 0 -14 -5 -31 -12 -38 -9 -9 -9 -15 0 -24 7 -7 12 -24 12 -39 0
-15 5 -31 10 -34 6 -3 10 -24 10 -46 0 -30 6 -46 25 -63 14 -13 25 -30 25 -38
0 -7 18 -32 40 -53 33 -32 40 -46 40 -78 0 -60 14 -67 132 -67 131 0 138 -6
138 -116 0 -67 3 -77 25 -98 14 -13 25 -30 25 -38 0 -9 7 -21 15 -28 8 -7 15
-19 15 -27 0 -18 56 -73 75 -73 7 0 17 -4 20 -10 3 -5 13 -10 22 -10 20 0 100
-81 105 -106 2 -11 13 -20 26 -22 12 -2 22 -8 22 -13 0 -5 43 -9 95 -9 79 0
96 -3 105 -17 10 -17 10 -17 20 0 8 13 24 17 65 17 30 0 55 5 55 10 0 14 94
12 109 -2 11 -10 14 -10 18 0 6 15 183 17 183 2 0 -6 34 -10 83 -10 70 0 85
-3 100 -20 9 -11 17 -26 17 -34 0 -7 7 -19 15 -26 8 -7 15 -21 15 -31 0 -11 7
-19 17 -19 23 0 103 -79 103 -102 0 -13 8 -18 29 -18 16 0 34 -7 42 -16 11
-14 13 -14 21 0 6 12 24 16 63 16 30 0 57 5 60 10 3 6 14 10 25 10 10 0 21 7
24 15 4 13 19 15 68 13 l63 -3 3 -47 c4 -69 22 -59 22 12 l0 60 77 0 c57 0 81
4 94 16 17 16 21 14 64 -29 36 -37 45 -53 45 -82 0 -35 0 -35 -43 -35 -33 0
-49 -6 -67 -25 -13 -14 -32 -25 -42 -25 -10 0 -21 -7 -25 -16 -3 -9 -13 -14
-24 -11 -29 8 -32 -9 -4 -27 13 -9 44 -16 69 -16 45 0 45 0 48 38 3 34 6 37
38 40 22 2 38 -2 45 -11 6 -9 27 -17 46 -19 l34 -3 3 -105 c1 -58 7 -109 12
-114 6 -6 10 -78 10 -162 0 -124 3 -154 15 -164 13 -11 15 -37 13 -154 -3
-137 -3 -140 -26 -146 -33 -7 -32 -24 1 -28 30 -4 37 -31 12 -52 -9 -8 -15
-30 -15 -56 0 -24 -4 -44 -10 -44 -6 0 -10 -35 -10 -85 0 -50 4 -85 10 -85 6
0 10 -45 10 -115 l0 -115 -25 0 c-14 0 -25 -4 -25 -10 0 -5 11 -10 25 -10 21
0 25 -5 25 -30 0 -20 9 -39 25 -54 32 -30 36 -96 7 -96 -11 0 -26 -8 -35 -18
-15 -16 -17 -47 -17 -221 0 -172 -2 -203 -15 -207 -9 -4 -25 4 -40 20 -27 30
-40 33 -49 11 -3 -9 -19 -15 -41 -15 -19 0 -35 -4 -35 -10 0 -5 -13 -10 -30
-10 -24 0 -45 -15 -104 -75 -41 -41 -81 -75 -89 -75 -18 0 -44 -29 -49 -55 -2
-11 -13 -21 -24 -23 -12 -2 -36 -19 -54 -38 -19 -18 -40 -34 -47 -34 -17 0
-53 -36 -53 -53 0 -8 -11 -24 -25 -37 -28 -27 -32 -61 -10 -80 14 -12 11 -18
-25 -55 -42 -43 -50 -74 -25 -95 14 -12 11 -18 -25 -55 -22 -22 -40 -48 -40
-58 0 -15 -12 -17 -89 -17 -50 0 -93 5 -96 10 -3 6 -19 10 -34 10 -16 0 -34 7
-41 15 -7 8 -23 15 -35 15 -13 0 -25 -7 -29 -15 -3 -8 -14 -15 -25 -15 -11 0
-23 -4 -26 -10 -3 -5 -41 -10 -84 -10 -58 0 -82 -4 -91 -15 -8 -10 -31 -15
-66 -15 -29 0 -56 -4 -59 -10 -8 -13 -85 -13 -85 0 0 6 -15 10 -34 10 -24 0
-38 7 -52 25 -18 23 -25 25 -107 25 -90 0 -117 -10 -117 -42 0 -8 -15 -28 -33
-46 l-33 -32 -112 0 c-68 0 -112 4 -112 10 0 6 -15 10 -33 10 -18 0 -38 5 -44
11 -8 8 -13 8 -17 0 -12 -19 -41 -12 -66 14 -21 23 -31 25 -102 25 -45 0 -78
-4 -78 -10 0 -5 -23 -10 -51 -10 -42 0 -56 5 -75 25 -13 14 -30 25 -38 25 -8
0 -18 5 -21 10 -3 6 -15 10 -26 10 -11 0 -22 7 -25 15 -4 10 -20 15 -48 15
-32 0 -48 6 -66 25 -13 14 -32 25 -42 25 -10 0 -18 5 -18 10 0 6 -8 10 -18 10
-23 0 -62 40 -62 63 0 10 7 20 15 23 11 4 15 21 15 59 0 38 -4 55 -15 59 -8 3
-15 14 -15 24 0 25 -31 52 -58 52 -12 0 -30 4 -40 9 -9 5 -25 12 -34 15 -13 4
-18 16 -18 41 0 27 -4 35 -18 35 -10 0 -29 11 -42 25 -19 21 -33 25 -76 25
-29 0 -56 5 -59 10 -3 6 -42 10 -86 10 -46 0 -79 -4 -79 -10 0 -5 -8 -10 -19
-10 -10 0 -24 -7 -31 -15 -8 -10 -31 -15 -70 -15 -49 0 -60 3 -76 25 -10 14
-26 25 -35 25 -9 0 -22 7 -29 15 -9 11 -32 15 -81 15 -47 0 -69 4 -69 12 0 7
-17 -5 -38 -25 -33 -33 -44 -37 -88 -37 -41 0 -55 -5 -74 -25 -19 -20 -33 -25
-75 -25 -45 0 -55 -4 -83 -33 -18 -18 -32 -41 -32 -50 0 -13 -9 -17 -34 -17
-21 0 -36 -6 -40 -15 -7 -20 -70 -20 -86 0 -7 8 -25 15 -41 15 -15 0 -31 4
-34 10 -7 12 -65 -45 -65 -65 0 -7 -4 -17 -10 -20 -5 -3 -10 -15 -10 -26 0
-11 -7 -22 -15 -25 -11 -5 -15 -23 -15 -74 0 -38 -4 -72 -10 -75 -5 -3 -10
-15 -10 -26 0 -11 -7 -22 -15 -25 -8 -4 -15 -14 -15 -24 0 -11 -4 -22 -10 -25
-5 -3 -10 -41 -10 -83 0 -74 -1 -77 -37 -114 -29 -30 -34 -41 -25 -50 7 -7 12
-18 12 -26 0 -18 25 -42 43 -42 8 0 20 -7 27 -15 7 -8 19 -15 26 -15 21 0 54
-32 54 -52 0 -9 5 -20 10 -23 6 -3 10 -13 10 -21 0 -8 23 -36 50 -63 48 -47
61 -71 40 -71 -5 0 -10 -16 -10 -35 0 -22 -6 -38 -15 -41 -19 -8 -19 -28 0
-44 8 -7 15 -21 15 -31 0 -12 7 -19 18 -19 41 0 52 -30 52 -142 0 -98 -2 -106
-24 -127 -14 -13 -26 -38 -28 -55 -2 -23 -8 -32 -25 -34 -15 -2 -23 -10 -23
-22 0 -10 -4 -22 -10 -25 -5 -3 -10 -30 -10 -59 0 -42 -5 -57 -23 -74 -13 -12
-29 -22 -36 -22 -28 0 -41 -29 -41 -94 0 -36 5 -68 10 -71 6 -3 10 -19 10 -34
0 -31 27 -61 54 -61 9 0 19 -7 22 -15 4 -8 14 -15 24 -15 34 0 50 -33 50 -103
0 -71 -17 -107 -52 -107 -10 0 -18 -7 -18 -17 0 -10 -11 -27 -24 -38 -20 -17
-25 -32 -28 -81 l-3 -59 -45 -3 c-38 -3 -52 -11 -102 -58 -31 -30 -61 -54 -67
-54 -6 0 -15 9 -21 20 -13 24 -71 28 -90 5 -18 -22 -2 -40 20 -20 19 17 50 11
50 -11 0 -7 -20 -34 -45 -58 -25 -25 -45 -50 -45 -56 0 -15 117 -13 123 3 4 9
8 8 16 -3 6 -8 9 -19 8 -25 -4 -13 -58 -43 -78 -44 -9 -1 -22 -8 -29 -16 -18
-22 -202 -22 -224 0 -9 10 -34 15 -68 15 -43 0 -57 4 -72 22 -17 20 -18 24 -3
52 8 17 19 40 23 51 7 16 9 11 12 -22 2 -29 8 -43 18 -43 11 0 14 18 14 85 0
82 -1 85 -23 85 -19 0 -27 -10 -41 -50 -17 -46 -36 -59 -36 -24 0 8 -7 29 -16
45 -11 22 -21 29 -37 27 -20 -3 -22 -10 -25 -76 -3 -71 -6 -79 -28 -64 -9 6
-35 74 -50 130 -2 8 -15 12 -31 10 -25 -3 -30 -11 -55 -83 -15 -44 -28 -81
-28 -82 0 -2 9 -3 20 -3 11 0 20 6 20 14 0 22 26 37 53 31 20 -5 26 -15 31
-48 6 -36 4 -43 -20 -64 -31 -26 -66 -30 -84 -8 -7 8 -21 15 -31 15 -10 0 -21
5 -24 10 -8 13 -62 13 -70 0 -3 -5 -15 -10 -26 -10 -10 0 -19 -4 -19 -10 0 -6
-33 -10 -77 -10 -53 -1 -84 -5 -97 -15 -11 -8 -28 -15 -38 -15 -10 0 -18 -4
-18 -9 0 -5 -29 -13 -65 -16 -54 -6 -69 -4 -84 9 -13 12 -38 16 -94 16 -69 0
-77 -2 -77 -19 0 -10 -25 -44 -56 -75 l-56 -56 -78 0 c-73 0 -130 16 -145 41
-4 5 -13 3 -21 -6 -9 -8 -25 -15 -37 -15 -12 0 -35 -11 -51 -25 -16 -14 -35
-25 -43 -25 -7 0 -13 -5 -13 -10 0 -7 -33 -10 -92 -8 -83 3 -93 5 -97 23 -4
24 -151 175 -171 176 -8 0 -28 9 -45 20 -16 10 -37 21 -45 25 -8 3 -23 10 -32
15 -24 12 -135 12 -143 -1 -9 -14 -248 -13 -262 1 -8 8 -13 8 -17 0 -4 -6 -36
-11 -72 -11 -45 0 -70 -5 -80 -15 -9 -8 -33 -15 -55 -15 -21 0 -39 -4 -39 -10
0 -6 -36 -10 -89 -10 -82 0 -89 2 -107 25 -12 17 -29 25 -49 26 -38 1 -89 30
-94 54 -8 43 -65 61 -91 30 -7 -8 -25 -15 -39 -15 -18 0 -39 -12 -61 -35 -33
-34 -35 -35 -116 -35 -75 0 -83 2 -100 25 -17 23 -25 25 -95 25 -56 0 -80 -4
-89 -15 -18 -22 -302 -22 -324 0 -8 8 -21 15 -28 15 -8 0 -19 5 -25 11 -8 8
-13 8 -17 0 -9 -14 -103 -15 -111 -1 -3 6 -30 10 -59 10 -43 0 -57 -4 -76 -25
-14 -15 -35 -25 -52 -25 -21 0 -28 -5 -28 -19 0 -26 -18 -31 -125 -31 -69 0
-96 4 -105 15 -11 13 -14 13 -27 0 -8 -8 -32 -15 -54 -15 -28 0 -39 -4 -39
-15 0 -30 -33 -55 -72 -55 -21 0 -38 5 -38 10 0 6 -6 10 -13 10 -8 0 -27 11
-43 25 -30 26 -97 35 -109 15 -3 -5 -14 -10 -24 -10 -22 0 -51 -30 -51 -53 0
-8 -10 -19 -22 -23 -12 -3 -46 -30 -75 -58 -43 -41 -53 -57 -53 -83 0 -18 -4
-33 -10 -33 -5 0 -10 -9 -10 -20 0 -11 -7 -23 -15 -26 -9 -4 -15 -19 -15 -40
0 -19 -4 -34 -10 -34 -5 0 -10 -8 -10 -19 0 -10 -7 -24 -15 -31 -8 -7 -15 -28
-15 -46 0 -19 -4 -34 -10 -34 -5 0 -10 -7 -10 -16 0 -9 -14 -31 -32 -50 -27
-28 -40 -34 -74 -34 -40 0 -98 21 -109 41 -4 5 -20 9 -37 9 -20 0 -36 8 -50
25 -19 24 -23 25 -145 25 -108 0 -128 -2 -139 -18 -16 -20 -18 -72 -4 -72 6 0
10 -33 10 -80 l0 -80 -39 0 c-22 0 -43 5 -46 10 -3 6 -16 10 -29 10 -38 0 -47
19 -24 51 18 24 20 33 10 53 -6 14 -22 28 -36 32 -29 7 -66 -11 -66 -31 0 -17
16 -20 25 -5 3 6 15 10 26 10 33 0 22 -36 -25 -85 l-44 -45 -86 0 c-46 0 -88
-4 -91 -10 -13 -21 -25 -9 -25 24 0 35 13 46 51 46 32 0 21 19 -13 22 -25 2
-34 8 -36 26 -3 19 1 22 32 22 19 0 38 4 41 10 7 12 -33 23 -71 18 -26 -3 -29
-7 -34 -47 -3 -25 -10 -46 -16 -48 -18 -6 -37 25 -36 57 1 41 -14 46 -33 10
-19 -36 -30 -38 -46 -7 -18 34 -32 38 -50 15 -16 -21 -18 -21 -43 -5 -14 9
-32 17 -41 17 -25 0 -65 31 -65 50 0 20 -28 47 -55 52 -11 2 -21 12 -23 22 -2
11 -10 26 -17 33 -16 15 -61 17 -70 3 -4 -6 -75 -10 -179 -10 -173 0 -173 0
-192 25 -12 16 -29 25 -47 25 -32 0 -97 56 -97 84 0 9 -4 16 -10 16 -5 0 -10
11 -10 24 0 13 -7 26 -15 30 -8 3 -15 13 -15 22 0 9 -16 32 -35 51 -29 29 -35
41 -35 77 0 30 -5 46 -15 50 -9 3 -15 18 -15 37 0 37 -46 85 -66 69 -16 -14
-61 11 -114 65 -44 44 -45 45 -110 45 -39 0 -71 -5 -78 -12 -10 -10 -17 -7
-36 15 -13 15 -28 27 -35 27 -6 0 -20 6 -31 12 -16 10 -24 10 -40 0 -49 -30
-133 3 -138 55 -2 17 -14 41 -28 54 -21 19 -24 31 -24 89 0 54 -3 68 -20 80
-11 8 -20 26 -20 41 0 41 -10 41 -55 1 -56 -49 -132 -76 -190 -68 -25 4 -47
11 -50 17 -4 5 -15 9 -26 9 -11 0 -42 22 -68 49 -50 51 -74 57 -45 13 15 -22
37 -44 81 -82 7 -5 18 -10 25 -10 7 0 22 -7 32 -15 32 -24 118 -19 179 10 44
22 56 24 75 14 19 -11 22 -21 22 -66 0 -45 4 -58 25 -77 14 -13 25 -30 25 -38
0 -9 7 -21 15 -28 8 -7 15 -21 15 -31 0 -11 4 -19 9 -19 5 0 11 -10 13 -22 3
-22 8 -23 109 -26 98 -2 108 -5 129 -27 21 -22 32 -25 100 -25 74 0 77 -1 110
-35 19 -19 42 -35 52 -35 10 0 21 -7 24 -15 4 -9 19 -15 35 -15 41 0 69 -28
69 -67 0 -18 5 -33 10 -33 6 0 10 -14 10 -30 0 -20 9 -39 25 -54 14 -13 25
-30 25 -38 0 -8 11 -25 25 -38 14 -13 25 -31 25 -41 0 -9 7 -19 15 -23 8 -3
15 -14 15 -24 0 -23 100 -122 123 -122 10 0 20 -7 23 -15 4 -9 19 -15 40 -15
19 0 34 -4 34 -10 0 -6 33 -10 79 -10 44 0 83 5 86 10 9 14 99 12 113 -2 9 -9
12 -9 12 0 0 7 15 12 38 12 41 0 72 -23 72 -52 0 -9 7 -18 15 -22 20 -7 19
-26 0 -26 -14 0 -32 -30 -50 -85 -6 -16 -10 -11 -21 28 -9 28 -20 47 -29 47
-8 0 -15 -1 -15 -3 0 -23 32 -142 41 -154 12 -13 15 -13 31 7 10 12 18 32 18
44 0 11 4 28 10 36 7 12 10 11 15 -5 18 -53 29 -81 36 -89 15 -17 38 15 45 60
4 32 11 44 23 44 19 0 51 -34 51 -53 0 -21 31 -58 42 -51 5 4 16 22 24 40 8
19 18 34 23 34 5 0 16 -18 25 -40 15 -37 18 -39 47 -33 25 5 35 1 54 -21 19
-22 31 -26 73 -26 28 0 54 5 57 10 3 6 24 10 46 10 21 0 39 -4 39 -10 0 -5 24
-10 54 -10 30 0 58 5 61 10 3 6 24 10 46 10 21 0 39 -4 39 -10 0 -6 30 -10 70
-10 l70 0 0 118 c0 103 3 121 18 135 21 19 42 22 42 7 0 -5 20 -10 44 -10 26
0 48 -6 56 -15 7 -8 21 -15 31 -15 11 0 19 -4 19 -10 0 -5 20 -10 44 -10 26 0
48 -6 56 -15 10 -11 36 -15 111 -15 89 0 99 2 99 18 0 10 11 29 25 42 14 13
25 32 25 42 0 10 7 21 15 24 9 4 15 19 15 36 0 20 9 39 25 54 16 15 25 34 25
54 0 16 5 30 10 30 6 0 10 8 10 19 0 10 7 24 15 31 8 7 15 23 15 36 0 14 4 32
9 42 5 9 12 25 15 35 3 9 14 17 25 17 13 0 21 8 23 23 2 18 10 23 41 25 20 2
37 7 37 12 0 5 10 10 23 12 14 2 23 11 25 25 5 36 48 30 88 -12 32 -34 35 -35
108 -35 63 0 76 3 76 16 0 9 15 31 34 50 29 29 41 34 80 34 32 0 48 -5 52 -15
8 -21 97 -21 114 0 8 10 31 15 66 15 29 0 56 5 59 10 3 6 13 10 21 10 8 0 25
11 38 25 26 27 83 34 104 13 10 -10 17 -10 32 0 24 14 106 16 115 2 3 -5 38
-10 76 -10 53 0 71 -4 75 -15 9 -22 179 -22 188 0 3 8 14 15 25 15 11 0 23 5
26 10 3 6 17 10 30 10 13 0 27 -4 30 -10 3 -5 15 -10 26 -10 11 0 22 -7 25
-15 4 -8 14 -15 24 -15 11 0 22 -4 25 -10 3 -6 52 -10 111 -10 94 0 104 2 104
18 0 35 32 52 98 52 35 0 62 -4 62 -10 0 -5 8 -10 19 -10 10 0 24 -7 31 -15 7
-8 21 -15 31 -15 11 0 19 -4 19 -10 0 -5 8 -10 19 -10 10 0 24 -7 31 -15 7 -8
25 -15 41 -15 15 0 31 -4 34 -10 3 -5 24 -10 45 -10 21 0 42 5 45 10 3 6 19
10 34 10 16 0 34 7 41 15 8 9 29 15 55 15 26 0 45 5 48 13 3 9 9 9 26 0 25
-15 87 -17 96 -3 3 6 28 10 55 10 27 0 52 -4 55 -10 8 -13 115 -13 115 0 0 6
14 10 30 10 17 0 30 -4 30 -10 0 -6 35 -10 85 -10 61 0 86 -4 92 -14 4 -8 17
-15 28 -18 11 -2 21 -12 23 -22 5 -24 26 -46 45 -46 19 0 57 -42 57 -63 0 -9
4 -17 9 -17 5 0 11 -10 13 -23 2 -16 11 -23 33 -25 17 -2 34 -8 40 -13 13 -13
72 -11 96 4 17 10 23 9 26 0 6 -15 59 -17 68 -3 3 6 19 10 34 10 16 0 34 7 41
15 7 8 21 15 31 15 11 0 19 5 19 10 0 6 33 10 80 10 47 0 80 -4 80 -10 0 -5
24 -10 53 -10 51 0 54 2 112 60 43 43 67 60 86 60 15 0 32 7 39 15 17 20 133
21 149 1 8 -10 9 -16 1 -21 -5 -3 -10 -12 -10 -19 0 -7 24 11 54 41 30 29 61
53 68 53 8 0 19 5 25 11 11 11 63 8 158 -6 37 -6 43 -4 64 24 29 38 61 40 87
6 16 -21 27 -25 71 -25 42 0 53 3 53 16 0 9 16 32 35 51 33 33 37 35 54 19 9
-9 29 -16 43 -16 13 0 35 -11 48 -25 19 -21 33 -25 76 -25 29 0 56 -4 59 -10
4 -6 55 -10 120 -10 65 0 116 4 120 10 3 6 19 10 34 10 16 0 34 7 41 15 7 9
23 15 34 13 19 -3 21 -11 24 -70 l3 -68 -46 0 c-39 0 -50 -5 -85 -40 -37 -37
-40 -44 -40 -95 0 -43 -4 -57 -17 -62 -9 -4 -19 -1 -21 5 -5 15 -58 16 -67 2
-8 -13 -85 -13 -85 0 0 6 -20 10 -45 10 -25 0 -45 -4 -45 -10 0 -5 -9 -10 -21
-10 -11 0 -27 -7 -35 -15 -21 -20 -107 -20 -124 0 -7 8 -20 15 -28 15 -9 0
-26 11 -38 25 -51 60 -134 74 -134 23 0 -18 4 -20 34 -15 29 5 38 0 72 -34 21
-21 46 -39 56 -39 10 0 18 -4 18 -10 0 -6 33 -10 79 -10 44 0 83 5 86 10 3 6
18 10 32 10 15 0 35 8 46 17 18 17 19 17 32 0 17 -23 92 -23 118 0 18 17 19
17 32 0 6 -9 21 -17 32 -17 34 0 53 32 53 87 0 39 5 54 23 71 13 12 30 22 39
22 9 0 18 6 21 13 3 9 9 10 26 0 11 -7 32 -13 46 -13 l25 0 0 110 c0 67 4 110
10 110 6 0 10 14 10 31 0 22 -8 39 -27 56 -26 22 -27 25 -10 37 9 7 17 20 17
29 0 9 5 19 10 22 6 3 10 14 10 23 0 32 36 52 95 52 l55 0 0 58 c0 60 15 86
56 94 11 2 20 12 23 23 2 11 14 30 27 42 15 14 24 33 24 53 0 16 5 30 10 30 6
0 10 20 10 44 0 25 -4 48 -10 51 -5 3 -10 13 -10 20 0 19 -51 70 -92 93 -19
11 -34 28 -36 40 -2 12 -8 22 -13 22 -5 0 -9 18 -9 40 0 22 4 40 9 40 6 0 11
17 13 38 2 30 7 38 26 40 17 3 22 10 22 31 0 16 7 34 15 41 8 7 15 25 15 39 0
16 10 37 25 51 14 13 25 32 25 42 0 10 5 18 10 18 6 0 10 8 10 18 0 10 11 29
25 42 24 22 25 29 25 137 l0 114 -52 50 -52 50 26 23 c20 16 27 33 30 67 l3
44 106 3 c98 2 108 5 129 27 13 14 29 25 37 25 17 0 53 36 53 53 0 7 23 35 50
62 46 45 50 53 50 96 0 29 -6 51 -15 59 -22 19 -18 63 8 88 16 15 36 22 65 22
34 0 42 4 42 18 0 22 60 82 82 82 10 0 18 10 20 23 2 14 11 23 26 25 12 2 22
8 22 13 0 5 8 9 18 9 30 0 52 33 52 76 0 40 25 74 54 74 33 0 46 35 46 126 0
77 3 92 20 107 11 9 26 17 34 17 7 0 19 7 26 15 10 12 39 15 142 15 l130 0 34
-34 c19 -19 34 -41 34 -49 0 -9 5 -19 10 -22 6 -3 10 -15 10 -26 0 -16 7 -19
43 -19 33 0 49 -6 65 -23 20 -21 22 -34 22 -125 0 -87 2 -102 16 -102 9 0 31
-15 50 -34 32 -32 34 -38 34 -99 0 -45 -4 -68 -15 -77 -22 -19 -18 -54 10 -80
21 -20 25 -33 25 -81 0 -32 -5 -61 -10 -64 -13 -8 -13 -45 0 -45 21 0 8 -24
-40 -71 -38 -37 -50 -56 -50 -79 0 -16 -4 -30 -10 -30 -6 0 -10 -29 -10 -68 0
-60 -3 -71 -25 -92 -14 -13 -25 -32 -25 -42 0 -10 -7 -21 -15 -24 -8 -4 -15
-12 -15 -19 0 -7 7 -18 15 -25 8 -7 15 -21 15 -31 0 -11 9 -19 23 -21 16 -2
23 -11 25 -31 4 -36 -11 -53 -65 -79 -24 -11 -48 -29 -54 -39 -13 -25 2 -24
34 1 14 11 32 20 40 20 9 0 19 5 22 10 3 6 38 10 76 10 52 0 70 3 67 13 -3 6
-22 14 -44 17 -35 4 -39 8 -42 35 -2 18 -18 45 -40 68 l-36 37 37 38 c36 37
37 40 37 114 0 55 4 79 15 88 8 7 15 25 15 39 0 28 54 91 79 91 30 0 54 51 31
65 -5 3 -10 41 -10 84 0 70 -2 80 -25 101 -25 23 -35 70 -15 70 6 0 10 26 10
59 0 65 11 82 39 57 11 -10 36 -16 67 -16 44 0 54 -4 84 -35 l34 -35 152 0
c122 0 154 -3 164 -15 7 -8 21 -15 31 -15 11 0 19 -4 19 -10 0 -14 46 -12 71
3 17 10 23 10 26 0 3 -8 22 -13 48 -13 26 0 47 -6 55 -15 18 -21 155 -21 164
0 3 8 14 15 24 15 21 0 52 29 52 49 0 7 13 26 29 42 24 24 38 29 77 29 37 0
51 -5 70 -25 13 -14 30 -25 38 -25 8 0 18 -4 21 -10 8 -13 232 -13 240 0 3 6
41 10 84 10 58 0 82 4 91 15 7 8 25 15 41 15 15 0 31 5 34 10 3 6 17 10 30 10
13 0 27 -4 30 -10 3 -5 30 -10 59 -10 36 0 58 -5 66 -15 10 -12 31 -15 99 -13
77 3 86 5 90 23 2 11 19 34 37 52 28 26 34 39 34 72 0 22 -4 43 -10 46 -5 3
-10 17 -10 30 0 17 6 25 23 27 14 2 23 11 25 26 2 12 8 22 13 22 5 0 9 27 9
60 0 40 4 62 14 67 8 4 15 17 17 28 3 14 13 21 35 23 23 2 49 22 104 78 41 40
80 74 87 74 8 0 47 34 87 75 40 41 81 75 89 75 9 0 19 5 22 10 8 13 102 13
110 0 3 -5 24 -10 45 -10 l40 0 2 207 c3 199 4 208 23 211 11 3 24 10 28 18 6
10 31 14 92 14 50 0 85 4 85 10 0 6 51 10 134 10 110 0 135 3 140 15 3 8 17
15 31 15 14 0 28 -7 31 -15 5 -12 30 -15 140 -15 83 0 134 -4 134 -10 0 -5 20
-10 44 -10 26 0 48 -6 56 -15 10 -12 36 -15 116 -15 58 0 106 -4 109 -10 3 -6
19 -10 34 -10 16 0 34 -7 41 -15 7 -8 25 -15 41 -15 15 0 31 -4 34 -10 8 -13
232 -13 240 0 3 6 37 10 75 10 51 0 69 4 74 15 3 8 15 15 26 15 17 0 20 6 20
41 0 33 6 47 34 75 31 31 40 34 90 34 31 0 56 5 56 10 0 6 86 10 238 10 l239
0 23 -25 c13 -14 35 -25 50 -25 18 0 41 -15 75 -50 46 -47 52 -50 100 -50 42
0 56 -5 75 -25 21 -22 32 -25 92 -25 39 0 68 -4 68 -10 0 -6 30 -10 70 -10 40
0 70 4 70 10 0 13 327 14 334 1 3 -5 17 -11 31 -13 23 -5 25 -2 25 31 l0 36
-105 -3 c-88 -3 -106 -1 -111 12 -8 20 -30 21 -38 1 -7 -19 -55 -19 -62 0 -4
8 -14 15 -24 15 -11 0 -22 4 -25 10 -17 28 -85 1 -85 -35 0 -19 -32 -34 -38
-17 -2 7 -23 12 -48 12 -32 0 -46 5 -51 16 -6 15 -7 15 -19 -1 -13 -17 -15
-17 -32 -2 -10 9 -26 17 -35 17 -9 0 -17 5 -17 10 0 6 -20 10 -44 10 -26 0
-48 6 -56 15 -7 8 -19 15 -28 15 -8 0 -29 16 -48 35 -23 25 -41 35 -62 35 -19
0 -35 8 -48 25 -15 20 -28 25 -60 25 -25 0 -47 6 -54 15 -18 22 -172 21 -190
0 -9 -11 -27 -15 -59 -13 l-46 3 -3 48 c-4 63 -22 61 -22 -3 l0 -50 -85 0
c-50 0 -85 -4 -85 -10 0 -5 -13 -10 -30 -10 -40 0 -90 -49 -90 -89 0 -17 -6
-34 -14 -38 -8 -4 -15 -17 -17 -28 -4 -18 -13 -20 -84 -23 -44 -2 -84 -7 -89
-12 -13 -13 -103 -13 -111 0 -3 6 -26 10 -51 10 -30 0 -46 5 -50 15 -4 10 -20
15 -49 15 -24 0 -47 4 -50 10 -3 6 -49 10 -101 10 -75 0 -96 3 -100 15 -4 10
-20 15 -49 15 -24 0 -47 5 -50 10 -3 6 -38 10 -76 10 -53 0 -71 4 -75 15 -9
22 -279 22 -288 0 -4 -12 -28 -15 -125 -15 -69 0 -122 -4 -126 -10 -3 -5 -35
-10 -71 -10 l-64 0 0 34 c0 21 -6 36 -15 40 -8 3 -15 14 -15 25 0 11 -4 23
-10 26 -6 4 -10 65 -10 150 0 118 -3 144 -15 149 -11 4 -15 21 -15 66 0 45 4
62 15 66 11 5 15 22 15 65 0 33 4 59 10 59 6 0 10 38 10 94 0 71 4 97 15 106
8 7 15 29 15 50 0 24 -5 40 -15 44 -11 4 -15 22 -15 75 0 38 -4 73 -10 76 -6
4 -10 73 -10 175 0 140 -2 169 -15 174 -12 4 -15 25 -15 99 0 72 4 98 15 107
20 17 19 80 -2 95 -19 14 -9 35 17 35 10 0 22 5 25 10 3 6 19 10 34 10 16 0
34 7 41 15 7 8 25 15 41 15 15 0 31 5 34 10 3 6 19 10 34 10 31 0 91 55 91 83
0 9 4 17 9 17 6 0 11 17 13 38 3 36 4 37 49 40 42 3 51 9 129 87 82 83 86 85
132 85 26 0 50 -4 53 -10 3 -5 26 -10 51 -10 30 0 46 -5 50 -15 4 -8 14 -15
24 -15 11 0 22 -4 25 -10 3 -5 26 -10 51 -10 30 0 46 -5 50 -15 4 -8 14 -15
24 -15 11 0 22 -4 25 -10 3 -5 19 -10 34 -10 16 0 37 -10 51 -25 18 -19 34
-25 67 -25 30 0 45 -5 49 -15 5 -11 23 -15 79 -15 52 0 76 4 85 15 7 8 21 15
31 15 11 0 19 5 19 10 0 6 14 10 30 10 17 0 30 -4 30 -10 0 -5 8 -10 19 -10
10 0 24 -7 31 -15 7 -8 25 -15 41 -15 15 0 31 -4 34 -10 3 -5 15 -10 26 -10
11 0 22 -7 25 -15 4 -8 14 -15 24 -15 11 0 22 -4 25 -10 3 -5 19 -10 34 -10
16 0 34 -7 41 -15 7 -8 19 -15 28 -15 8 0 25 -11 38 -25 22 -24 27 -25 154
-25 80 0 130 -4 130 -10 0 -6 29 -10 68 -10 60 0 71 -3 92 -25 13 -14 30 -25
38 -25 8 0 29 -15 48 -34 27 -27 34 -42 34 -74 0 -23 5 -44 10 -47 6 -3 10
-19 10 -34 0 -31 27 -61 54 -61 9 0 19 -7 22 -15 4 -9 19 -15 40 -15 19 0 34
-4 34 -10 0 -5 14 -10 30 -10 27 0 30 3 30 29 0 17 -4 33 -10 36 -22 14 -7 50
40 96 34 33 50 57 50 74 0 17 15 41 44 70 41 43 47 45 100 45 31 0 56 5 56 10
0 6 28 10 63 10 55 0 67 -3 87 -25 14 -15 35 -25 50 -25 29 0 60 -27 60 -53 0
-13 13 -17 72 -19 61 -3 73 -6 76 -21 4 -21 56 -77 72 -77 17 0 11 36 -10 55
-11 10 -20 30 -20 45 0 15 -7 33 -15 40 -11 9 -15 32 -15 81 0 39 -4 69 -10
69 -5 0 -10 22 -10 49 0 28 5 53 10 56 6 3 10 30 10 59 0 35 5 58 15 66 8 7
15 23 15 35 0 12 -7 28 -15 35 -8 7 -15 21 -15 31 0 11 -4 19 -10 19 -5 0 -10
7 -10 15 0 8 5 15 10 15 6 0 10 30 10 69 0 49 4 72 15 81 11 9 15 33 15 85 0
52 -4 76 -15 85 -8 7 -15 21 -15 31 0 11 -4 19 -10 19 -5 0 -10 8 -10 19 0 10
-7 24 -15 31 -8 7 -15 21 -15 31 0 11 -4 19 -10 19 -5 0 -10 4 -10 10 0 17 34
50 52 50 16 0 18 10 18 70 0 40 -4 70 -10 70 -5 0 -10 8 -10 18 0 22 -27 48
-55 54 -17 3 -20 12 -23 66 -2 49 0 64 13 68 10 4 15 20 15 49 0 24 5 47 10
50 6 3 10 14 10 23 0 27 49 62 87 62 32 0 33 1 33 40 0 44 -26 58 -32 18 -2
-18 -11 -24 -35 -26 -25 -3 -33 -8 -33 -23 0 -11 -7 -22 -15 -25 -8 -4 -15
-14 -15 -23 0 -10 -11 -28 -25 -41 -15 -14 -25 -35 -25 -51 0 -15 -4 -31 -10
-34 -5 -3 -10 -31 -10 -61 0 -42 -4 -56 -17 -61 -9 -4 -19 -1 -21 5 -2 7 -19
12 -37 12 -19 0 -38 6 -42 14 -5 8 -27 16 -53 18 -42 3 -45 5 -48 33 -2 17 -8
34 -13 39 -5 6 -9 29 -9 52 0 28 -5 44 -15 48 -8 3 -15 15 -15 26 0 11 -7 20
-15 20 -17 0 -21 -55 -5 -65 6 -3 10 -19 10 -34 0 -16 7 -34 15 -41 8 -7 15
-21 15 -31 0 -11 5 -19 10 -19 22 0 6 -25 -59 -90 -63 -64 -73 -70 -110 -70
-30 0 -41 -4 -41 -15 0 -11 13 -15 53 -15 51 0 54 2 112 60 54 54 63 60 102
60 23 0 45 -5 48 -10 3 -6 19 -10 34 -10 16 0 34 -7 41 -15 7 -8 22 -15 35
-15 24 0 79 -25 107 -49 23 -19 25 -93 3 -111 -8 -7 -15 -21 -15 -31 0 -11 -4
-19 -10 -19 -5 0 -10 -16 -10 -35 0 -19 5 -35 10 -35 6 0 10 -8 10 -19 0 -10
7 -24 15 -31 8 -7 15 -21 15 -31 0 -11 5 -19 10 -19 6 0 10 -37 10 -90 0 -53
-4 -90 -10 -90 -6 0 -10 -30 -10 -70 0 -83 -16 -99 -55 -56 -13 14 -31 26 -39
26 -8 0 -18 5 -21 10 -3 5 -15 10 -26 10 -11 0 -22 7 -25 15 -5 11 -22 15 -65
15 -58 0 -60 -1 -107 -49 -26 -27 -57 -50 -67 -52 -11 -3 -21 -12 -23 -22 -3
-13 3 -17 25 -17 21 0 42 13 78 50 48 48 51 50 106 50 48 0 59 -4 75 -25 10
-14 26 -25 35 -25 8 0 26 -11 39 -25 13 -14 31 -25 40 -25 25 0 50 -37 50 -75
0 -19 -4 -35 -10 -35 -6 0 -10 -30 -10 -69 0 -49 -4 -72 -15 -81 -21 -17 -20
-103 0 -120 12 -10 15 -28 13 -69 l-3 -56 -49 -3 c-53 -3 -86 16 -86 50 0 14
-8 18 -34 18 -24 0 -38 7 -52 25 -17 23 -25 25 -96 25 -42 0 -80 -4 -83 -10
-3 -5 -30 -10 -58 -10 -51 0 -55 -2 -110 -58 -39 -39 -57 -66 -57 -83 0 -17
-16 -41 -50 -74 -53 -52 -61 -77 -34 -107 16 -16 15 -18 -2 -25 -10 -4 -19 -2
-22 5 -2 7 -12 12 -22 12 -9 0 -23 7 -30 15 -7 8 -21 15 -31 15 -15 0 -19 7
-19 34 0 21 -6 36 -15 40 -9 3 -15 19 -15 41 0 19 -4 35 -10 35 -5 0 -10 8
-10 18 0 23 -60 82 -83 82 -9 0 -17 5 -17 10 0 6 -8 10 -19 10 -10 0 -24 7
-31 15 -8 10 -30 15 -64 15 -29 0 -56 4 -61 9 -6 5 -23 11 -40 13 -25 3 -30 8
-33 34 -2 17 -14 42 -28 55 -14 13 -24 34 -24 50 0 14 -7 32 -15 39 -9 8 -15
30 -15 57 0 30 5 45 15 49 10 4 15 20 15 48 0 32 6 48 25 66 22 21 25 32 25
95 0 63 -3 74 -25 95 -14 13 -25 29 -25 37 0 23 -39 53 -70 53 -16 0 -30 4
-30 10 0 5 -28 10 -62 12 -59 3 -63 5 -63 27 0 29 45 59 88 60 16 1 35 8 43
16 9 8 26 15 39 15 13 0 27 5 30 10 3 6 26 10 49 10 27 0 48 6 56 15 7 8 29
15 49 15 49 0 91 36 91 79 0 17 -4 31 -10 31 -5 0 -10 19 -10 43 0 33 -6 49
-25 67 -14 13 -25 31 -25 41 0 9 -7 19 -15 23 -20 7 -20 72 1 84 12 6 14 23
12 73 l-3 64 -47 3 c-44 3 -50 0 -86 -37 -42 -44 -88 -55 -112 -26 -7 8 -21
15 -31 15 -11 0 -19 5 -19 10 0 6 -8 10 -19 10 -10 0 -24 7 -31 15 -7 8 -25
15 -39 15 -16 0 -37 10 -51 25 -13 14 -30 25 -38 25 -8 0 -25 11 -38 25 -30
33 -77 33 -107 1 -12 -13 -31 -25 -42 -27 -11 -3 -21 -13 -23 -23 -2 -11 -23
-39 -47 -63 -32 -32 -50 -43 -74 -43 -17 0 -31 -4 -31 -10 0 -5 -14 -10 -30
-10 -23 0 -41 -10 -69 -40 -21 -22 -45 -40 -53 -40 -39 0 -63 -65 -33 -90 25
-21 17 -39 -44 -101 -58 -57 -61 -59 -113 -59 -44 0 -59 4 -76 23 -12 13 -22
35 -22 48 0 14 -11 36 -25 49 -19 18 -25 34 -25 67 0 24 -4 43 -10 43 -5 0
-10 15 -10 34 0 21 -6 36 -15 40 -9 3 -15 19 -15 41 0 19 -4 35 -10 35 -13 0
-14 342 -1 355 6 6 11 30 13 55 2 37 7 46 25 48 12 2 27 10 33 18 7 8 25 14
41 14 15 0 31 5 34 10 3 6 19 10 34 10 16 0 34 7 41 15 7 8 19 15 26 15 8 0
14 6 14 13 0 7 18 31 40 52 l40 39 0 109 c0 102 -1 109 -25 131 -14 13 -25 30
-25 38 0 9 -7 21 -15 28 -11 9 -15 32 -15 82 0 52 4 70 15 74 12 5 15 32 15
159 0 127 -3 154 -15 159 -8 3 -15 14 -15 25 0 11 -4 23 -10 26 -6 3 -10 51
-10 109 l0 102 -40 39 c-22 21 -40 45 -40 52 0 8 -14 27 -30 43 l-31 30 -130
0 -130 0 -38 -40 c-29 -30 -46 -40 -69 -40 -18 0 -32 -4 -32 -10 0 -5 -15 -10
-34 -10 -21 0 -36 -6 -40 -15 -3 -8 -14 -15 -25 -15 -11 0 -23 -4 -26 -10 -3
-5 -19 -10 -34 -10 -16 0 -34 -7 -41 -15 -10 -12 -46 -15 -206 -15 -123 0
-194 -4 -194 -10 0 -5 -8 -10 -19 -10 -10 0 -24 -7 -31 -15 -7 -8 -20 -15 -29
-15 -9 0 -25 -11 -35 -25 -15 -20 -27 -25 -65 -25 -26 0 -52 5 -58 11 -8 8
-13 8 -17 0 -4 -6 -16 -11 -27 -11 -10 0 -19 -4 -19 -10 0 -5 -8 -10 -19 -10
-10 0 -24 -7 -31 -15 -7 -8 -21 -15 -31 -15 -11 0 -19 -4 -19 -10 0 -6 -33
-10 -80 -10 -47 0 -80 4 -80 10 0 6 -8 10 -18 10 -23 0 -112 90 -112 113 0 9
-4 17 -10 17 -5 0 -10 7 -10 15 0 8 5 15 10 15 6 0 10 8 10 19 0 10 7 24 15
31 8 7 15 21 15 31 0 10 5 21 10 24 16 10 12 65 -5 65 -11 0 -15 -12 -15 -44
0 -26 -6 -48 -15 -56 -8 -7 -15 -21 -15 -31 0 -11 -4 -19 -10 -19 -5 0 -10
-16 -10 -35 0 -19 5 -35 11 -35 6 0 9 -12 7 -27 -2 -20 -9 -29 -25 -31 -13 -2
-23 -8 -23 -13 0 -5 -15 -9 -34 -9 -21 0 -36 -6 -40 -15 -3 -9 -18 -15 -38
-15 -26 0 -44 11 -90 57 -42 41 -58 65 -58 84 0 15 -7 32 -15 39 -8 7 -15 24
-15 39 0 15 -4 31 -9 36 -5 6 -11 24 -13 40 -3 28 -6 30 -48 33 l-45 2 28 -24
c15 -14 27 -34 27 -44 0 -11 7 -22 15 -26 9 -3 15 -19 15 -41 0 -19 5 -35 10
-35 6 0 10 -8 10 -17 0 -10 18 -35 40 -57 22 -21 40 -46 40 -55 0 -9 11 -25
25 -35 22 -17 25 -26 25 -87 0 -39 4 -69 10 -69 6 0 10 -49 10 -126 0 -120 -1
-128 -24 -149 -20 -19 -24 -33 -28 -113 -4 -81 -2 -91 14 -95 32 -9 32 -35 -2
-73 -37 -43 -30 -54 38 -54 29 0 44 5 48 15 7 17 54 21 54 5 0 -6 38 -10 95
-10 55 0 95 4 95 10 0 5 11 12 24 16 13 3 45 28 72 55 34 35 56 49 76 49 15 0
30 5 33 10 3 6 44 10 89 10 77 0 85 -2 102 -25 16 -21 27 -25 70 -25 48 0 107
-20 119 -41 8 -12 165 -12 165 1 0 5 11 12 25 16 14 3 25 13 25 21 0 9 16 30
35 49 28 26 35 40 35 72 0 28 7 45 25 62 l25 23 0 219 c0 185 2 220 15 224 10
4 15 21 15 53 0 37 4 49 23 61 46 30 70 40 98 40 16 0 29 4 29 10 0 5 11 12
25 16 14 3 25 10 25 15 0 5 15 9 34 9 18 0 39 7 46 15 7 8 24 15 37 15 16 0
42 17 76 50 l51 50 86 0 85 0 48 -45 c26 -25 47 -53 47 -61 0 -8 11 -25 25
-38 23 -21 25 -31 25 -104 0 -62 3 -81 15 -86 9 -3 15 -19 15 -41 0 -19 5 -35
10 -35 6 0 10 -50 10 -131 0 -114 2 -134 18 -145 16 -12 15 -15 -10 -37 -25
-22 -28 -31 -28 -89 0 -56 3 -68 25 -88 14 -13 25 -32 25 -42 0 -10 5 -18 10
-18 6 0 10 -48 10 -123 l0 -123 -33 -32 c-18 -18 -41 -32 -50 -32 -9 0 -17 -4
-17 -10 0 -5 -15 -10 -34 -10 -21 0 -36 -6 -40 -15 -3 -9 -19 -15 -41 -15 -19
0 -35 -4 -35 -10 0 -5 -8 -10 -18 -10 -31 0 -52 -33 -52 -79 0 -28 -5 -44 -15
-47 -13 -5 -15 -36 -15 -194 0 -154 3 -190 15 -200 8 -7 15 -25 15 -41 0 -15
5 -31 10 -34 6 -3 10 -19 10 -34 0 -16 7 -34 15 -41 8 -7 15 -25 15 -39 0 -16
10 -37 25 -51 23 -22 25 -30 24 -104 -1 -45 -6 -92 -12 -106 -10 -24 -10 -23
-24 23 -10 32 -20 47 -31 47 -16 0 -24 -13 -47 -75 -7 -16 -10 -12 -22 28 -8
28 -20 47 -29 47 -17 0 -17 -10 -3 -64 30 -117 30 -106 -2 -113 -16 -3 -32
-10 -35 -14 -3 -5 -13 -9 -24 -9 -10 0 -20 -7 -24 -15 -3 -8 -14 -15 -24 -15
-20 0 -52 -29 -52 -47 0 -6 7 -13 15 -17 8 -3 15 -14 15 -25 0 -11 5 -23 10
-26 6 -4 10 -57 10 -127 l0 -120 -50 -49 c-27 -27 -50 -55 -50 -62 0 -28 -36
-47 -87 -47 -56 0 -83 -20 -83 -62 0 -14 -7 -31 -15 -38 -8 -7 -15 -19 -15
-26 0 -27 -34 -54 -67 -54 -18 0 -33 -4 -33 -10 0 -5 -13 -10 -30 -10 -27 0
-30 3 -30 30 0 20 -9 39 -25 54 -14 13 -25 31 -25 40 0 23 -31 55 -47 49 -19
-8 -34 16 -23 37 5 9 33 28 63 44 53 26 107 75 107 96 0 16 -12 12 -39 -14
-112 -108 -277 -97 -366 23 -33 46 -35 53 -35 125 l0 76 52 55 c29 30 60 55
68 55 9 0 21 5 28 12 6 6 42 13 79 16 75 4 85 8 63 23 -13 9 -82 7 -145 -3
-16 -2 -20 3 -20 27 0 27 4 30 33 33 36 4 44 22 10 22 -13 0 -29 4 -37 9 -22
14 -5 41 26 41 15 0 35 4 42 9 12 8 10 11 -11 16 -14 4 -40 5 -59 3 l-34 -3 0
-96 0 -96 -40 -24 c-22 -13 -50 -28 -62 -32 -13 -5 -23 -13 -23 -18 0 -5 -7
-9 -15 -9 -8 0 -15 -3 -15 -7 0 -5 -14 -22 -30 -40 -17 -18 -30 -38 -30 -44 0
-7 9 -3 20 9 11 12 20 25 20 31 0 9 23 21 41 21 5 0 9 -40 9 -89 0 -50 5 -93
10 -96 6 -3 10 -14 10 -24 0 -42 141 -140 204 -142 21 -1 25 -3 11 -6 -11 -3
-24 -9 -29 -14 -14 -13 -110 -11 -158 4 -43 12 -128 85 -128 109 0 10 -3 9 -9
-1 -7 -10 -4 -23 9 -40 30 -43 83 -91 98 -91 5 0 24 -7 41 -16 27 -13 50 -15
120 -10 73 6 90 5 100 -8 8 -9 22 -16 32 -16 12 0 19 -7 19 -18 0 -10 11 -29
25 -42 29 -28 32 -52 8 -80 -20 -23 -61 -27 -69 -5 -4 8 -14 15 -23 15 -9 0
-22 5 -29 12 -9 9 -12 9 -12 0 0 -8 -25 -12 -84 -12 -65 0 -85 -3 -90 -15 -7
-20 -65 -19 -88 2 -17 15 -19 15 -37 -1 -11 -10 -28 -16 -38 -14 -15 3 -18 15
-21 91 -4 121 -22 111 -22 -13 l0 -100 -54 0 c-35 0 -58 -5 -66 -15 -7 -8 -21
-15 -31 -15 -11 0 -19 -4 -19 -10 0 -15 -127 -13 -133 3 -3 9 -7 9 -21 -2 -14
-12 -19 -11 -36 4 -11 10 -20 24 -20 31 0 18 -56 74 -73 74 -16 0 -57 42 -57
58 0 7 -14 26 -30 42 -28 27 -37 30 -95 30 -35 0 -67 5 -70 10 -3 6 -35 10
-71 10 -48 0 -66 4 -70 15 -8 19 -58 19 -74 0 -8 -10 -31 -15 -66 -15 -29 0
-56 -4 -59 -10 -3 -5 -39 -10 -80 -10 -60 0 -74 3 -80 18 -6 16 -7 16 -16 0
-8 -14 -23 -18 -69 -18 -32 0 -62 5 -65 10 -3 6 -14 10 -23 10 -20 0 -52 33
-52 53 0 19 -63 77 -83 77 -9 0 -17 5 -17 10 0 6 -8 10 -18 10 -23 0 -112 90
-112 113 0 9 -4 17 -10 17 -6 0 -10 33 -10 80 l0 79 -45 45 -45 45 -92 3 -93
3 -3 31 c-2 17 -14 42 -28 55 -13 12 -24 29 -24 36 0 8 -16 29 -35 47 -29 27
-35 41 -35 73 0 24 -6 46 -15 53 -11 9 -15 33 -15 89 0 70 3 80 25 101 23 22
25 30 25 115 0 87 2 93 25 111 18 13 25 28 25 51 0 18 -4 33 -10 33 -5 0 -10
16 -10 35 0 28 5 37 23 44 30 12 97 79 97 98 0 11 -10 6 -30 -14 -17 -17 -43
-36 -58 -43 -15 -7 -35 -16 -44 -21 -26 -13 -112 -11 -160 4 -43 13 -110 68
-122 101 -5 15 -9 17 -18 8 -15 -15 -190 -16 -218 -2 -11 6 -29 14 -40 20 -12
6 -21 6 -25 0 -3 -6 -20 -10 -36 -10 -24 0 -44 13 -90 59 -32 33 -59 67 -59
75 0 11 -9 16 -29 16 -16 0 -34 7 -41 15 -7 8 -21 15 -31 15 -11 0 -19 4 -19
9 0 5 -10 11 -22 13 -18 2 -24 11 -26 35 -2 17 -10 37 -18 43 -9 8 -14 31 -14
64 0 42 5 57 23 74 13 12 30 22 38 22 8 0 23 11 33 25 10 14 27 25 37 25 17 0
19 9 19 93 0 87 -1 93 -25 111 -14 10 -25 27 -25 37 0 10 -4 21 -10 24 -5 3
-10 13 -10 20 0 19 -55 75 -73 75 -8 0 -20 7 -27 15 -7 8 -24 15 -39 15 -15 0
-32 5 -39 12 -9 9 -12 9 -12 0 0 -8 -24 -12 -80 -12 -47 0 -80 4 -80 10 0 6
-77 10 -210 10 -178 0 -212 2 -216 15 -5 11 -23 15 -79 15 -52 0 -76 -4 -85
-15 -7 -8 -21 -15 -31 -15 -11 0 -19 -4 -19 -10 0 -5 -18 -10 -39 -10 -22 0
-43 5 -46 10 -3 6 -14 10 -23 10 -10 0 -25 9 -35 20 -15 18 -17 47 -17 255 0
145 4 236 10 240 16 10 12 65 -5 65 -11 0 -15 -11 -15 -35 0 -22 -6 -38 -15
-41 -23 -9 -22 -459 1 -468 9 -3 14 -15 12 -28 -2 -19 -10 -24 -47 -26 -41 -3
-60 2 -113 29 -10 5 -20 5 -23 -1 -3 -6 -32 -10 -64 -10 -50 0 -61 3 -77 25
-19 26 -67 35 -79 15 -3 -5 -18 -10 -33 -10 -19 0 -43 -16 -84 -57 -32 -32
-58 -63 -58 -71 0 -18 -155 -172 -173 -172 -21 0 -47 -34 -47 -61 0 -26 -55
-89 -78 -89 -6 0 -63 -52 -126 -115 -63 -63 -120 -115 -127 -115 -17 0 -99
-80 -99 -97 0 -20 -32 -53 -52 -53 -9 0 -20 -4 -23 -10 -3 -5 -13 -10 -21 -10
-18 0 -51 -33 -56 -57 -2 -10 -13 -19 -26 -21 -13 -2 -22 -10 -22 -21 0 -10
-8 -25 -18 -34 -15 -14 -42 -17 -155 -17 -85 0 -137 4 -137 10 0 6 -118 10
-335 10 -289 0 -336 2 -341 15 -5 13 -112 15 -879 15 -763 0 -874 -2 -885 -15
-10 -12 -37 -15 -122 -15 -87 0 -110 3 -114 15 -4 8 -12 15 -19 15 -7 0 -15
-7 -19 -15 -3 -9 -18 -15 -39 -15 -19 0 -40 7 -47 15 -16 20 -56 19 -64 -1 -4
-11 -18 -14 -58 -12 -46 3 -53 6 -56 26 -2 14 -10 22 -23 22 -11 0 -22 7 -25
15 -5 11 -22 15 -61 15 -47 0 -60 4 -79 25 -17 18 -33 25 -62 25 -30 0 -45 7
-70 33 l-32 33 48 47 c37 36 55 47 79 47 18 0 35 -4 38 -10 3 -5 23 -10 43
-10 29 0 39 5 47 23 9 19 20 23 76 27 70 5 119 30 119 61 0 9 7 22 15 29 8 7
15 20 15 29 0 10 14 24 33 32 30 13 32 18 35 68 2 30 -2 59 -7 64 -6 6 -11 19
-11 28 0 9 -7 19 -15 23 -20 7 -19 40 1 56 19 16 15 65 -6 65 -8 0 -16 -10
-18 -22 -2 -13 -8 -23 -13 -23 -5 0 -9 -16 -9 -35 0 -19 5 -35 10 -35 6 0 10
-8 10 -19 0 -10 7 -24 15 -31 11 -9 15 -27 13 -59 -2 -37 -7 -47 -23 -49 -28
-6 -55 -32 -55 -54 0 -10 -4 -18 -10 -18 -5 0 -10 -8 -10 -18 0 -10 -10 -28
-23 -40 -19 -18 -35 -22 -86 -22 -57 0 -66 -3 -87 -27 -22 -26 -24 -26 -42
-10 -11 10 -35 17 -60 17 -39 0 -48 -6 -106 -65 -63 -65 -100 -81 -112 -50
-10 25 -71 19 -98 -10 -24 -26 -88 -36 -101 -15 -3 6 -49 10 -101 10 -75 0
-96 3 -100 15 -5 12 -26 15 -99 15 -79 0 -94 3 -110 20 -14 16 -21 17 -32 8
-11 -9 -27 2 -81 55 -37 37 -75 67 -85 67 -9 0 -17 4 -17 9 0 5 -10 11 -22 13
-13 2 -24 11 -26 21 -2 11 -26 41 -53 67 -40 39 -49 54 -49 83 0 39 12 47 66
47 33 0 34 1 34 39 0 25 -5 41 -15 45 -11 4 -15 21 -15 63 0 50 4 60 27 80 14
13 36 23 49 23 13 0 26 5 29 10 3 6 22 10 41 10 l34 0 0 60 c0 33 4 60 10 60
19 0 10 37 -15 60 -20 19 -25 33 -25 72 0 26 -6 58 -12 69 -10 17 -10 23 0 26
21 8 13 56 -13 83 l-26 27 41 39 c37 36 40 43 40 92 0 45 -3 52 -20 52 -17 0
-20 -7 -20 -46 0 -40 -5 -51 -35 -80 -33 -31 -46 -64 -25 -64 6 0 10 -10 10
-21 0 -12 8 -28 18 -35 16 -13 16 -15 0 -28 -22 -16 -23 -30 -3 -46 10 -8 15
-30 15 -62 0 -38 5 -55 25 -75 22 -24 23 -29 10 -43 -8 -9 -15 -35 -15 -58 0
-34 -3 -42 -19 -42 -10 0 -24 -7 -31 -15 -7 -8 -24 -15 -38 -15 -30 0 -82 -45
-82 -71 0 -10 -7 -22 -16 -27 -15 -8 -15 -10 0 -15 11 -5 16 -19 16 -50 0 -24
5 -48 11 -54 17 -17 2 -33 -30 -33 -36 0 -61 -28 -61 -69 0 -24 10 -41 41 -71
23 -21 38 -44 34 -49 -10 -17 -152 -14 -162 3 -5 8 -27 16 -53 18 -34 2 -46 7
-48 22 -6 32 -60 76 -92 76 -27 0 -30 3 -30 30 0 20 -9 39 -25 54 -14 13 -25
30 -25 38 0 9 -7 21 -15 28 -14 12 -14 15 0 30 32 36 5 120 -39 120 -8 0 -18
5 -21 10 -3 6 -24 10 -46 10 -37 0 -47 6 -110 70 -54 54 -69 75 -69 98 0 17
-6 32 -15 36 -9 3 -15 18 -15 36 0 51 -18 60 -118 60 -67 0 -93 4 -102 15 -7
8 -21 15 -31 15 -11 0 -19 4 -19 9 0 6 -21 11 -47 13 -37 2 -49 7 -51 21 -6
30 -40 57 -72 57 -23 0 -41 -10 -69 -40 -21 -22 -47 -40 -57 -40 -30 0 -54 36
-54 78 0 31 -7 45 -40 77 -26 25 -40 48 -40 65 -1 32 -22 60 -45 60 -17 0 -17
-1 -2 -18z m12356 -206 c9 -10 8 -16 -4 -26 -8 -7 -15 -25 -15 -41 0 -15 -4
-31 -10 -34 -15 -9 -13 -408 2 -423 9 -9 7 -16 -7 -32 -10 -11 -22 -20 -26
-20 -16 0 -49 34 -49 50 0 8 -38 53 -85 100 -62 61 -85 91 -85 110 0 18 -25
49 -90 115 l-90 91 31 32 c31 32 82 62 104 62 7 0 18 7 25 15 17 21 282 22
299 1z m-12008 -38 c10 -13 18 -29 19 -35 0 -9 17 -13 48 -13 38 0 56 -6 78
-25 26 -22 38 -25 115 -25 88 0 109 -8 109 -42 0 -10 5 -18 10 -18 6 0 10 -15
10 -34 0 -21 6 -36 15 -40 8 -3 15 -13 15 -21 0 -18 23 -45 38 -45 17 0 62
-46 62 -63 0 -10 8 -17 19 -17 11 0 23 -4 26 -10 3 -5 17 -10 30 -10 13 0 30
-6 37 -14 8 -8 23 -15 34 -18 20 -3 34 -58 15 -58 -14 0 -14 -37 -1 -45 6 -3
10 -14 10 -25 0 -10 7 -20 15 -24 8 -3 15 -14 15 -25 0 -11 5 -23 10 -26 6 -3
10 -13 10 -20 0 -26 56 -73 91 -77 25 -2 35 -9 37 -23 6 -32 53 -75 82 -75 14
0 30 -4 36 -10 5 -5 56 -11 114 -12 95 -3 106 -5 114 -24 5 -11 19 -25 30 -30
27 -12 37 -101 12 -110 -12 -5 -16 -21 -16 -65 0 -33 -4 -59 -10 -59 -5 0 -10
-9 -10 -19 0 -11 5 -23 10 -26 6 -3 10 -14 10 -25 0 -10 7 -20 15 -24 9 -3 15
-19 15 -41 0 -19 5 -35 10 -35 6 0 10 -20 10 -44 0 -26 6 -48 15 -56 8 -7 15
-19 15 -27 0 -19 24 -43 44 -43 8 0 18 -4 21 -10 3 -6 51 -10 108 -10 94 0
104 2 131 25 33 28 29 27 50 19 11 -4 16 -19 16 -47 0 -22 7 -48 15 -57 14
-15 14 -18 0 -30 -20 -17 -20 -86 0 -94 8 -3 15 -14 15 -24 0 -10 23 -40 50
-67 51 -50 64 -87 38 -113 -9 -9 -9 -15 0 -24 7 -7 12 -20 12 -30 0 -10 5 -18
10 -18 6 0 10 -11 10 -24 0 -14 -4 -28 -10 -31 -5 -3 -10 -19 -10 -34 0 -16
-7 -34 -15 -41 -8 -7 -15 -25 -15 -41 0 -15 -4 -31 -10 -34 -5 -3 -10 -15 -10
-25 0 -10 -6 -23 -14 -27 -8 -5 -16 -27 -18 -53 -2 -34 -7 -46 -22 -48 -23 -5
-76 -58 -76 -77 0 -7 -4 -17 -10 -20 -5 -3 -10 -15 -10 -26 0 -11 -7 -22 -16
-26 -15 -5 -15 -7 0 -15 9 -5 16 -18 16 -28 0 -10 5 -22 10 -25 6 -3 10 -21
10 -40 0 -19 -4 -37 -10 -40 -6 -3 -10 -51 -10 -108 0 -96 1 -102 27 -129 16
-17 37 -28 54 -28 14 0 32 -7 39 -15 7 -8 21 -15 31 -15 12 0 19 -7 19 -19 0
-10 7 -24 15 -31 8 -7 15 -25 15 -41 0 -15 5 -31 10 -34 6 -3 10 -14 10 -25 0
-10 7 -20 15 -24 8 -3 15 -13 15 -22 0 -21 28 -54 46 -54 21 0 54 -32 54 -52
0 -9 5 -20 10 -23 6 -3 10 -19 10 -34 0 -16 7 -34 15 -41 23 -19 18 -63 -10
-90 -15 -14 -25 -35 -25 -51 0 -14 -7 -32 -15 -39 -8 -7 -15 -21 -15 -31 0
-15 -7 -19 -38 -19 -21 0 -43 5 -50 12 -9 9 -12 9 -12 0 0 -7 -8 -12 -18 -12
-22 0 -48 -27 -54 -55 -4 -25 -55 -34 -64 -11 -10 25 -21 20 -73 -34 -34 -34
-57 -50 -75 -50 -28 0 -82 -47 -88 -76 -3 -16 -14 -19 -77 -22 -42 -2 -79 2
-85 8 -5 5 -17 10 -25 10 -8 0 -31 18 -52 40 -21 22 -44 40 -52 40 -7 0 -24
11 -37 25 -14 14 -35 25 -50 25 -17 0 -38 12 -60 35 -19 19 -41 35 -50 35 -25
0 -50 37 -50 74 0 28 4 35 23 38 18 2 23 10 25 40 3 30 -2 43 -22 62 -14 13
-26 29 -26 36 0 20 -31 50 -52 50 -10 0 -21 7 -24 15 -4 8 -16 15 -27 15 -23
0 -87 -56 -87 -77 0 -33 -34 -53 -89 -53 -81 0 -101 22 -101 112 0 39 -4 68
-10 68 -5 0 -10 8 -10 18 0 10 -18 36 -40 57 -22 21 -40 47 -40 57 0 10 -4 18
-10 18 -5 0 -10 11 -10 24 0 14 5 28 10 31 16 10 12 134 -4 151 -18 17 -93 19
-99 2 -3 -10 -9 -10 -28 -1 -13 7 -58 14 -99 15 -66 3 -75 5 -79 23 -2 11 -9
24 -17 28 -8 4 -14 22 -14 38 0 22 -10 40 -35 63 -19 19 -35 40 -35 48 0 9 -7
21 -15 28 -8 7 -15 19 -15 27 0 8 -22 36 -50 62 -35 34 -50 56 -50 75 0 17
-13 39 -40 66 -33 33 -47 40 -80 40 -22 0 -40 -4 -40 -10 0 -5 -13 -10 -30
-10 -16 0 -30 5 -30 10 0 6 -8 10 -19 10 -10 0 -24 7 -31 15 -9 10 -32 15 -77
15 -58 0 -67 3 -94 29 -16 16 -29 36 -29 43 0 7 -34 47 -75 88 l-75 74 0 127
c0 102 -3 129 -15 139 -14 12 -13 16 6 37 18 18 33 23 72 23 53 0 87 19 87 50
0 15 61 50 88 50 7 0 12 4 12 10 0 5 11 12 25 16 25 6 25 8 25 103 0 91 -2 99
-25 121 -24 23 -25 28 -25 151 0 100 -3 129 -15 139 -8 7 -15 21 -15 32 0 10
7 21 15 24 10 4 15 20 15 44 0 21 -7 43 -15 50 -9 7 -15 29 -15 52 0 35 7 46
59 99 46 46 66 59 90 59 23 0 30 5 33 23 2 17 11 23 35 25 17 2 37 10 43 18 7
8 19 14 26 14 8 0 14 6 14 14 0 7 7 19 15 26 20 17 20 98 0 120 -14 15 -14 18
0 30 20 17 20 86 0 94 -8 3 -15 12 -15 21 0 8 -6 25 -12 36 -10 17 -10 23 0
26 14 6 17 93 2 93 -6 0 -10 33 -10 80 0 88 11 101 46 55 23 -30 54 -33 54 -6
0 27 50 78 78 80 14 0 32 -9 43 -21z m11045 -73 c16 -14 34 -25 40 -25 6 0 17
-7 24 -15 9 -11 34 -15 101 -15 48 0 90 4 94 9 7 12 64 41 80 41 7 0 18 7 25
15 29 34 130 4 130 -39 0 -9 30 -45 66 -81 l66 -65 -45 -45 c-25 -25 -52 -45
-60 -45 -7 0 -24 -11 -37 -25 -13 -14 -29 -25 -37 -25 -7 0 -22 -9 -33 -20
-29 -29 -26 -78 7 -112 l27 -28 -27 -28 c-15 -15 -27 -36 -27 -45 0 -15 -12
-17 -84 -17 -65 0 -85 -3 -90 -15 -3 -9 -18 -15 -36 -15 -24 0 -42 -11 -79
-50 -26 -27 -55 -50 -64 -50 -9 0 -19 -4 -22 -10 -3 -5 -39 -10 -80 -10 -41 0
-77 5 -80 10 -3 6 -14 10 -24 10 -18 0 -30 22 -46 77 -4 13 -17 26 -31 29 -23
6 -24 10 -24 76 0 63 3 73 25 94 23 22 25 29 25 122 0 80 -3 101 -15 106 -11
4 -15 22 -15 74 0 75 9 92 52 92 15 0 28 5 28 10 0 6 15 10 34 10 18 0 39 7
46 15 18 22 53 18 86 -10z m754 -354 l120 -120 0 -51 c0 -46 -4 -56 -34 -86
-19 -19 -41 -34 -49 -34 -9 0 -19 -4 -22 -10 -3 -5 -35 -10 -71 -10 -36 0 -64
4 -64 10 0 6 -8 10 -19 10 -10 0 -24 7 -31 15 -8 10 -30 15 -63 15 -61 0 -87
19 -87 66 0 18 5 36 10 39 13 8 13 58 -1 72 -18 18 -7 77 16 82 11 2 29 14 40
27 11 13 27 24 36 24 8 0 29 16 48 35 18 19 37 35 42 35 6 0 64 -54 129 -119z
m-962 -368 c2 -8 -6 -13 -22 -13 -28 0 -43 15 -24 23 20 8 41 3 46 -10z
m-9461 -208 c27 -27 54 -45 68 -45 13 0 30 -7 39 -15 11 -11 38 -15 105 -15
49 0 93 -4 96 -10 3 -5 46 -10 95 -10 65 0 92 -4 104 -15 9 -9 33 -15 64 -15
39 0 53 5 72 25 24 26 54 33 65 15 3 -5 19 -10 34 -10 16 0 34 -6 41 -14 6 -8
21 -16 33 -18 18 -2 22 -11 25 -48 3 -41 -1 -48 -38 -85 -22 -21 -40 -47 -40
-57 0 -14 -8 -18 -42 -18 -34 0 -49 -6 -75 -32 -18 -18 -33 -40 -33 -50 0 -15
-8 -18 -44 -18 -26 0 -48 -6 -56 -15 -7 -8 -19 -15 -27 -15 -8 0 -29 -16 -47
-35 -22 -23 -43 -35 -60 -35 -24 0 -26 3 -26 42 0 54 -22 78 -70 78 -26 0 -43
-7 -60 -25 -28 -30 -93 -35 -122 -8 -17 15 -19 15 -39 -3 -20 -18 -22 -18 -34
-1 -6 9 -18 17 -25 17 -28 0 -50 33 -50 75 0 29 -5 45 -15 49 -10 3 -15 19
-15 48 0 31 -6 49 -25 68 -23 24 -24 28 -10 40 10 8 15 30 15 66 0 29 5 56 10
59 6 3 10 19 10 34 0 55 18 54 77 -4z m973 -200 c19 -20 33 -25 70 -25 48 0
100 -20 134 -52 21 -19 91 -25 101 -8 3 6 17 10 30 10 13 0 27 -4 30 -10 4 -6
77 -10 185 -10 108 0 181 4 185 10 4 7 312 10 890 10 578 0 886 -3 890 -10 4
-6 125 -10 330 -10 269 0 326 -2 338 -15 9 -9 40 -15 83 -17 l69 -3 3 -52 c2
-32 -1 -53 -7 -53 -7 0 -11 -25 -11 -60 0 -33 4 -60 10 -60 6 0 10 -16 10 -36
0 -26 -8 -43 -29 -65 -16 -16 -36 -29 -43 -29 -7 0 -47 -34 -88 -75 -41 -41
-82 -75 -91 -75 -9 0 -19 -7 -23 -15 -3 -8 -15 -15 -26 -15 -13 0 -20 -7 -20
-20 0 -11 -7 -23 -15 -26 -8 -4 -15 -13 -15 -22 0 -22 -30 -52 -52 -52 -10 0
-18 -7 -18 -17 0 -27 -41 -63 -72 -63 -19 0 -28 -5 -28 -16 0 -10 -22 -39 -50
-65 -27 -26 -50 -53 -50 -60 0 -20 -41 -59 -62 -59 -23 0 -25 -48 -1 -65 9 -7
13 -17 9 -23 -10 -17 -56 -15 -62 3 -4 8 -12 15 -19 15 -7 0 -15 -7 -19 -15
-3 -8 -12 -15 -21 -15 -8 0 -24 -5 -35 -12 -16 -10 -23 -8 -44 15 -31 33 -96
39 -96 9 0 -10 -11 -29 -25 -42 -14 -13 -25 -32 -25 -42 0 -10 -7 -21 -15 -24
-9 -4 -15 -19 -15 -40 0 -19 -4 -34 -10 -34 -5 0 -10 -8 -10 -18 0 -10 -11
-29 -25 -42 -27 -25 -33 -68 -13 -88 9 -9 6 -18 -15 -40 -15 -15 -27 -34 -27
-41 0 -8 -11 -24 -24 -36 -13 -12 -26 -31 -28 -41 -3 -17 -14 -19 -86 -22 -73
-2 -82 -5 -71 -18 10 -12 6 -21 -24 -52 -29 -30 -34 -41 -25 -50 9 -9 6 -18
-15 -40 -15 -15 -27 -36 -27 -45 0 -13 -9 -17 -34 -17 -21 0 -36 -6 -40 -15
-3 -8 -14 -15 -23 -15 -10 0 -52 -34 -93 -75 -41 -41 -82 -75 -92 -75 -11 0
-18 -7 -18 -18 0 -10 -11 -29 -25 -42 -14 -13 -25 -31 -25 -41 0 -14 -10 -19
-47 -21 -41 -3 -48 -6 -51 -25 -3 -19 -10 -23 -37 -23 -20 0 -35 -6 -39 -15
-3 -9 -18 -15 -39 -15 -19 0 -40 7 -47 15 -17 21 -60 20 -60 -2 0 -22 -39 -63
-61 -63 -11 0 -19 -9 -21 -22 -2 -15 -11 -24 -25 -26 -13 -2 -23 -8 -23 -13 0
-5 -52 -9 -118 -9 -113 0 -120 -1 -142 -25 -13 -14 -29 -25 -36 -25 -7 0 -49
-36 -94 -80 l-80 -80 0 -63 c0 -54 -4 -67 -24 -86 -14 -13 -26 -38 -28 -55 -3
-29 -6 -31 -48 -34 -26 -2 -48 -10 -53 -18 -5 -9 -24 -14 -53 -14 -39 0 -51 5
-80 34 -19 19 -34 40 -34 47 0 20 -31 49 -52 49 -10 0 -29 -11 -42 -25 -13
-14 -30 -25 -38 -25 -9 0 -21 -7 -28 -15 -8 -10 -31 -15 -66 -15 -29 0 -56 -4
-59 -10 -11 -18 -51 -10 -75 15 -13 14 -32 25 -42 25 -11 0 -29 -11 -42 -25
-19 -21 -32 -25 -79 -25 -39 0 -56 -4 -61 -15 -3 -8 -14 -15 -24 -15 -10 0
-23 -5 -29 -11 -6 -6 -21 -9 -34 -7 -18 2 -25 10 -27 33 -2 17 -8 34 -13 39
-5 6 -9 18 -9 27 0 9 -7 19 -15 23 -8 3 -15 14 -15 25 0 11 -4 23 -10 26 -5 3
-10 19 -10 34 0 16 -7 34 -15 41 -8 7 -15 25 -15 41 0 15 -4 31 -10 34 -5 3
-10 19 -10 34 0 16 -7 34 -15 41 -11 9 -15 27 -13 59 l3 46 88 3 87 3 0 34 c0
19 5 35 10 35 6 0 10 15 10 34 0 24 7 38 25 52 20 15 25 28 25 61 0 23 -4 45
-10 48 -5 3 -10 24 -10 46 0 30 -6 46 -25 63 -14 13 -25 29 -25 36 0 19 -30
50 -49 50 -19 0 -51 34 -51 54 0 7 -7 19 -15 26 -8 7 -15 25 -15 41 0 15 -4
31 -10 34 -5 3 -10 18 -10 32 0 32 -26 63 -52 63 -10 0 -21 7 -24 15 -4 9 -19
15 -35 15 -55 0 -69 24 -69 118 0 64 3 84 15 88 11 4 15 21 15 59 0 38 -4 55
-15 59 -9 3 -15 19 -15 41 0 22 6 38 15 41 8 4 15 13 15 22 0 20 29 52 47 52
27 0 53 39 53 79 0 22 5 43 10 46 6 3 10 15 10 26 0 11 7 22 15 25 9 4 15 19
15 40 0 19 5 34 10 34 6 0 10 20 10 44 0 26 6 48 15 56 8 7 15 23 15 35 0 12
-7 28 -15 35 -10 9 -15 32 -15 76 l0 64 -60 59 c-48 47 -60 65 -60 90 0 34 26
71 50 71 9 0 32 16 50 35 48 49 84 65 147 65 52 0 53 0 53 30 0 44 27 70 74
70 41 0 76 22 76 48 0 8 16 29 35 48 24 23 35 41 35 62 0 36 6 42 45 42 21 0
40 -9 55 -25z m11100 -300 c13 -14 31 -25 40 -25 10 0 26 -11 36 -25 12 -17
29 -25 49 -26 16 0 44 -9 60 -20 17 -10 37 -21 45 -25 8 -3 23 -10 32 -15 10
-5 39 -9 66 -9 42 0 52 5 82 35 44 46 74 44 78 -4 2 -18 -1 -38 -7 -44 -14
-14 -14 -64 -1 -72 6 -3 10 -14 10 -25 0 -10 7 -20 15 -24 8 -3 15 -14 15 -25
0 -11 5 -23 10 -26 6 -3 10 -26 10 -50 0 -29 5 -45 15 -49 39 -15 -8 -86 -56
-86 -15 0 -31 -4 -34 -10 -3 -5 -30 -10 -59 -10 -35 0 -58 -5 -66 -15 -7 -8
-25 -15 -41 -15 -15 0 -31 -4 -34 -10 -3 -5 -19 -10 -34 -10 -16 0 -34 -7 -41
-15 -7 -8 -19 -15 -27 -15 -25 0 -43 -27 -43 -66 0 -55 22 -74 86 -74 29 0 56
-4 59 -10 3 -5 18 -10 33 -10 16 0 39 -12 59 -32 29 -28 33 -38 33 -84 0 -34
5 -56 15 -64 14 -12 11 -18 -25 -55 -26 -27 -40 -50 -40 -67 0 -15 -4 -30 -10
-33 -5 -3 -10 -37 -10 -76 0 -39 4 -69 10 -69 6 0 10 -14 10 -30 0 -20 9 -39
26 -55 16 -15 24 -32 22 -47 -3 -21 -8 -23 -73 -26 -65 -3 -73 -1 -95 23 -13
14 -32 25 -42 25 -10 0 -21 7 -24 15 -4 9 -19 15 -40 15 -19 0 -34 5 -34 10 0
6 -8 10 -19 10 -10 0 -24 7 -31 15 -7 8 -21 15 -31 15 -11 0 -19 5 -19 10 0 6
-16 10 -35 10 -22 0 -38 6 -41 15 -4 8 -14 15 -24 15 -11 0 -22 5 -25 10 -3 6
-24 10 -45 10 -21 0 -42 -4 -45 -10 -3 -5 -14 -10 -25 -10 -10 0 -20 -7 -24
-15 -4 -11 -21 -15 -64 -15 -41 0 -64 5 -72 15 -7 9 -29 15 -53 15 -30 0 -46
6 -63 25 -15 16 -34 25 -54 25 -16 0 -30 5 -30 10 0 6 -8 10 -19 10 -10 0 -24
7 -31 15 -8 9 -30 15 -56 15 -24 0 -44 5 -44 10 0 6 -8 10 -19 10 -10 0 -24 7
-31 15 -8 10 -30 15 -64 15 -29 0 -56 4 -61 9 -6 5 -23 11 -40 13 l-30 3 -3
106 c-2 98 -5 108 -27 129 -30 28 -34 70 -6 70 10 0 24 7 31 15 7 8 19 15 27
15 8 0 21 7 29 15 9 9 34 15 60 15 63 0 130 46 140 95 3 20 10 38 15 41 5 3 9
16 9 30 0 14 6 24 14 24 15 0 30 -37 41 -103 6 -40 31 -59 46 -36 5 8 14 31
19 52 6 20 14 37 18 37 4 0 14 -20 21 -45 7 -25 17 -48 23 -51 17 -11 35 16
46 69 6 28 14 62 18 75 5 16 2 22 -9 22 -10 0 -20 -15 -27 -40 -13 -47 -26
-58 -34 -27 -12 47 -5 64 54 122 44 44 60 67 60 87 0 15 -4 30 -10 33 -5 3
-10 17 -10 30 0 18 7 26 24 31 13 3 39 21 57 40 21 22 42 34 60 34 14 0 32 7
39 15 7 8 24 15 38 15 27 0 82 45 82 67 0 19 32 53 50 53 9 0 27 11 40 25 13
14 31 25 40 25 9 0 27 -11 40 -25z m-636 -532 c-10 -42 -17 -49 -25 -27 -14
35 -10 54 11 54 17 0 19 -4 14 -27z m-204 -61 c0 -26 -7 -45 -19 -56 -27 -25
-32 -8 -14 47 19 57 33 61 33 9z m-842 -932 c2 -25 7 -49 13 -54 5 -6 9 -20 9
-33 0 -19 -5 -23 -30 -23 -29 0 -30 2 -30 42 0 32 -6 49 -26 69 -32 34 -23 51
24 47 36 -3 37 -4 40 -48z m-3752 -2465 c4 -8 14 -15 23 -15 10 0 28 -11 40
-24 13 -14 38 -26 55 -28 l31 -3 0 -100 c0 -96 -1 -100 -22 -103 -14 -2 -23
-10 -23 -21 0 -10 -11 -27 -25 -37 -18 -13 -25 -28 -25 -52 0 -22 -5 -34 -17
-38 -10 -3 -26 -10 -35 -15 -10 -5 -22 -9 -28 -9 -14 0 -70 -57 -70 -72 0 -6
-14 -27 -32 -45 -26 -27 -39 -33 -75 -33 -35 0 -43 -3 -43 -18 0 -10 -11 -29
-25 -42 -19 -18 -25 -34 -25 -67 0 -24 5 -43 10 -43 6 0 10 -18 10 -40 0 -22
-4 -40 -10 -40 -5 0 -10 -8 -10 -17 0 -22 -89 -113 -110 -113 -8 0 -24 -11
-34 -25 -18 -24 -23 -25 -127 -25 -66 0 -109 -4 -109 -10 0 -23 -28 -7 -82 47
-41 40 -58 65 -58 83 0 35 -75 107 -115 112 -40 4 -45 34 -11 63 23 20 26 30
26 87 0 46 4 69 15 78 8 7 15 21 15 31 0 11 5 19 10 19 6 0 10 8 10 19 0 10 7
24 15 31 11 9 15 33 15 89 0 69 3 80 24 100 14 13 26 38 28 55 3 35 36 48 58
21 18 -21 155 -22 164 0 3 8 14 15 24 15 22 0 69 47 74 75 3 17 12 20 75 23
65 3 72 5 75 25 3 20 9 22 74 25 61 2 75 6 94 27 20 21 33 25 82 25 43 0 60
-4 64 -15z m-1732 -2662 c8 -19 -7 -38 -22 -29 -11 7 -4 46 8 46 4 0 11 -8 14
-17z m166 -100 c0 -8 -7 -13 -17 -11 -19 3 -29 47 -18 76 5 13 10 10 21 -17 8
-18 14 -40 14 -48z m490 42 c0 -20 -5 -25 -23 -25 -33 0 -40 10 -20 32 23 26
43 23 43 -7z m-7130 -788 c0 -60 -12 -66 -27 -16 -13 46 -10 59 13 59 10 0 14
-12 14 -43z"/>
<path d="M24020 9224 c0 -64 3 -85 13 -82 6 3 13 19 15 36 3 27 8 31 35 34 42
4 41 22 -1 26 -28 3 -33 7 -30 25 2 16 11 23 33 25 57 6 51 22 -8 22 l-57 0 0
-86z"/>
<path d="M24276 9288 c-9 -35 -7 -68 4 -68 6 0 19 6 30 13 17 10 22 9 30 -3
25 -39 -4 -75 -41 -52 -12 8 -20 8 -24 1 -11 -16 15 -39 45 -39 71 0 82 102
12 124 -28 9 -19 26 14 26 13 0 24 5 24 10 0 6 -20 10 -44 10 -37 0 -45 -4
-50 -22z"/>
<path d="M20555 10631 c-3 -6 -14 -36 -24 -68 -11 -32 -22 -66 -26 -75 -5 -14
-2 -18 13 -18 11 0 22 8 25 20 8 31 65 28 77 -4 7 -18 14 -23 30 -19 13 3 17
10 12 17 -4 6 -16 38 -27 71 -10 33 -23 66 -28 73 -11 14 -43 16 -52 3z m39
-58 c8 -19 -7 -38 -22 -29 -11 7 -4 46 8 46 4 0 11 -8 14 -17z"/>
<path d="M20694 10627 c-9 -24 0 -162 11 -160 6 1 11 10 13 20 11 67 12 68 35
22 12 -24 27 -44 32 -43 10 1 26 29 41 69 6 15 9 9 13 -25 10 -74 26 -47 26
42 0 71 -2 83 -18 86 -13 3 -24 -10 -41 -50 l-24 -53 -11 28 c-6 15 -15 38
-21 52 -10 27 -47 35 -56 12z"/>
<path d="M20975 10630 c-3 -5 -2 -18 4 -27 5 -10 12 -40 16 -66 7 -46 29 -82
44 -73 4 3 14 24 21 48 19 61 27 66 39 21 25 -92 55 -89 76 8 7 35 15 71 17
79 1 8 -3 15 -11 15 -8 0 -21 -19 -28 -42 -8 -24 -18 -43 -23 -43 -4 0 -10 18
-14 39 -8 52 -31 60 -56 18 -11 -17 -20 -40 -20 -50 0 -32 -17 -9 -24 32 -6
37 -29 60 -41 41z"/>
<path d="M21225 10630 c-3 -5 -2 -18 4 -27 5 -10 12 -40 16 -66 7 -46 29 -82
44 -73 4 3 14 24 21 48 19 61 27 66 39 21 25 -92 55 -89 76 8 7 35 15 71 17
79 1 8 -3 15 -11 15 -8 0 -21 -19 -28 -42 -8 -24 -18 -43 -23 -43 -4 0 -10 18
-14 39 -8 52 -31 60 -56 18 -11 -17 -20 -40 -20 -50 0 -32 -17 -9 -24 32 -6
37 -29 60 -41 41z"/>
<path d="M21494 10627 c-3 -8 -4 -47 -2 -88 3 -76 19 -97 28 -37 4 29 9 33 38
36 36 4 44 22 10 22 -13 0 -29 4 -37 9 -21 13 -5 41 23 41 13 0 32 3 41 6 13
5 14 8 3 15 -21 14 -98 11 -104 -4z"/>
<path d="M20180 10400 c0 -5 -9 -10 -19 -10 -11 0 -26 -7 -35 -15 -8 -8 -19
-15 -25 -15 -6 0 -11 -3 -11 -7 0 -5 -14 -22 -30 -40 -17 -18 -30 -38 -30 -44
0 -7 9 -3 20 9 11 12 20 25 20 30 0 5 14 15 30 22 17 7 30 16 30 21 0 5 8 9
18 9 10 0 22 4 28 9 5 6 39 11 77 13 91 4 91 22 0 26 -46 2 -73 -1 -73 -8z"/>
<path d="M20335 10380 c-8 -13 20 -24 42 -16 15 6 15 8 3 16 -20 13 -37 12
-45 0z"/>
<path d="M20395 10350 c3 -5 11 -10 16 -10 6 0 7 5 4 10 -3 6 -11 10 -16 10
-6 0 -7 -4 -4 -10z"/>
<path d="M23077 9304 c-4 -4 -7 -15 -7 -24 0 -9 -6 -30 -14 -46 -8 -16 -17
-44 -21 -61 -5 -26 -3 -33 9 -33 9 0 21 11 26 25 7 18 17 25 35 25 17 0 29 -8
37 -25 10 -23 28 -32 40 -20 3 3 -7 40 -21 83 -23 66 -30 77 -52 80 -13 2 -28
0 -32 -4z m43 -64 c0 -22 -16 -35 -25 -20 -9 14 4 52 16 45 5 -4 9 -15 9 -25z"/>
<path d="M23220 9224 c0 -64 3 -85 13 -82 6 3 13 24 15 49 l3 44 23 -44 c12
-25 27 -46 33 -48 13 -5 43 46 44 74 1 29 17 -16 18 -50 1 -18 6 -27 14 -24 8
2 12 28 12 83 0 77 -1 79 -24 79 -19 0 -27 -9 -40 -42 -8 -24 -18 -43 -22 -43
-3 0 -14 20 -23 45 -14 36 -22 45 -42 45 -24 0 -24 -2 -24 -86z"/>
<path d="M21713 9232 c-7 -4 -21 -35 -32 -67 -10 -33 -22 -68 -26 -77 -5 -14
-2 -18 13 -18 11 0 22 8 25 20 8 31 65 28 77 -4 7 -18 14 -23 30 -19 13 3 17
10 12 17 -4 6 -16 38 -27 71 -26 83 -39 98 -72 77z m31 -59 c8 -19 -7 -38 -22
-29 -11 7 -4 46 8 46 4 0 11 -8 14 -17z"/>
<path d="M21844 9227 c-9 -24 0 -162 11 -160 6 1 11 10 13 20 11 67 12 68 35
22 12 -24 27 -44 32 -43 10 1 26 29 41 69 6 15 9 9 13 -25 10 -74 26 -47 26
42 0 71 -2 83 -18 86 -13 3 -24 -10 -41 -50 l-24 -53 -11 28 c-6 15 -15 38
-21 52 -10 27 -47 35 -56 12z"/>
<path d="M22125 9230 c-3 -5 -2 -18 4 -27 5 -10 12 -40 16 -66 7 -46 29 -82
44 -73 4 3 14 24 21 48 19 61 27 66 39 21 6 -21 17 -47 24 -57 13 -17 14 -17
30 -1 9 9 17 27 17 39 0 13 6 44 14 69 21 71 -10 75 -33 5 -16 -48 -27 -48
-35 1 -8 52 -31 60 -56 18 -11 -17 -20 -40 -20 -50 0 -32 -17 -9 -24 32 -6 37
-29 60 -41 41z"/>
<path d="M22375 9230 c-3 -5 -2 -18 4 -27 5 -10 12 -40 16 -66 7 -46 29 -82
44 -73 4 3 14 24 21 48 19 61 27 66 39 21 6 -21 17 -47 24 -57 13 -17 14 -17
30 -1 9 9 17 27 17 39 0 13 6 44 14 69 21 71 -10 75 -33 5 -16 -48 -27 -48
-35 1 -8 52 -31 60 -56 18 -11 -17 -20 -40 -20 -50 0 -32 -17 -9 -24 32 -6 37
-29 60 -41 41z"/>
<path d="M22934 9198 c-9 -18 -20 -35 -23 -38 -10 -8 -31 -49 -31 -60 0 -5 11
-10 25 -10 13 0 36 -5 50 -12 21 -10 29 -9 42 5 13 13 15 20 5 29 -7 7 -12 36
-12 65 0 46 -3 53 -20 53 -12 0 -26 -12 -36 -32z m16 -57 c0 -24 -11 -32 -28
-22 -16 10 -5 41 14 41 8 0 14 -9 14 -19z"/>
<path d="M22863 9048 c2 -7 12 -13 22 -13 10 0 20 6 23 13 2 7 -6 12 -23 12
-17 0 -25 -5 -22 -12z"/>
<path d="M22925 9020 c3 -5 8 -10 11 -10 2 0 4 5 4 10 0 6 -5 10 -11 10 -5 0
-7 -4 -4 -10z"/>
<path d="M22100 8900 c0 -5 5 -10 11 -10 5 0 7 5 4 10 -3 6 -8 10 -11 10 -2 0
-4 -4 -4 -10z"/>
<path d="M22120 8866 c0 -8 5 -18 10 -21 6 -3 10 3 10 14 0 12 -4 21 -10 21
-5 0 -10 -6 -10 -14z"/>
<path d="M20850 8850 c0 -5 5 -10 11 -10 5 0 7 5 4 10 -3 6 -8 10 -11 10 -2 0
-4 -4 -4 -10z"/>
<path d="M21125 8850 c-3 -5 -1 -10 4 -10 6 0 11 5 11 10 0 6 -2 10 -4 10 -3
0 -8 -4 -11 -10z"/>
<path d="M21450 8816 c0 -14 5 -26 10 -26 6 0 10 9 10 19 0 11 -4 23 -10 26
-6 4 -10 -5 -10 -19z"/>
<path d="M22150 8830 c0 -5 5 -10 11 -10 5 0 7 5 4 10 -3 6 -8 10 -11 10 -2 0
-4 -4 -4 -10z"/>
<path d="M20900 8800 c0 -5 5 -10 11 -10 5 0 7 5 4 10 -3 6 -8 10 -11 10 -2 0
-4 -4 -4 -10z"/>
<path d="M21075 8800 c-3 -5 -1 -10 4 -10 6 0 11 5 11 10 0 6 -2 10 -4 10 -3
0 -8 -4 -11 -10z"/>
<path d="M22175 8800 c3 -5 8 -10 11 -10 2 0 4 5 4 10 0 6 -5 10 -11 10 -5 0
-7 -4 -4 -10z"/>
<path d="M22200 8780 c0 -5 5 -10 11 -10 5 0 7 5 4 10 -3 6 -8 10 -11 10 -2 0
-4 -4 -4 -10z"/>
<path d="M20950 8750 c0 -5 5 -10 11 -10 5 0 7 5 4 10 -3 6 -8 10 -11 10 -2 0
-4 -4 -4 -10z"/>
<path d="M21000 8750 c0 -5 9 -10 20 -10 11 0 20 5 20 10 0 6 -9 10 -20 10
-11 0 -20 -4 -20 -10z"/>
<path d="M21500 8741 c0 -12 5 -21 10 -21 6 0 10 6 10 14 0 8 -4 18 -10 21 -5
3 -10 -3 -10 -14z"/>
<path d="M22225 8750 c3 -5 8 -10 11 -10 2 0 4 5 4 10 0 6 -5 10 -11 10 -5 0
-7 -4 -4 -10z"/>
<path d="M20973 8724 c-3 -8 -1 -20 6 -27 8 -8 11 -4 11 16 0 30 -7 35 -17 11z"/>
<path d="M22250 8730 c0 -5 5 -10 11 -10 5 0 7 5 4 10 -3 6 -8 10 -11 10 -2 0
-4 -4 -4 -10z"/>
<path d="M21520 8690 c0 -11 5 -20 10 -20 6 0 10 9 10 20 0 11 -4 20 -10 20
-5 0 -10 -9 -10 -20z"/>
<path d="M22270 8690 c0 -11 5 -20 10 -20 6 0 10 9 10 20 0 11 -4 20 -10 20
-5 0 -10 -9 -10 -20z"/>
<path d="M21000 8666 c0 -14 5 -26 10 -26 6 0 10 9 10 19 0 11 -4 23 -10 26
-6 4 -10 -5 -10 -19z"/>
<path d="M21550 8641 c0 -12 5 -21 10 -21 6 0 10 6 10 14 0 8 -4 18 -10 21 -5
3 -10 -3 -10 -14z"/>
<path d="M22300 8650 c0 -5 5 -10 11 -10 5 0 7 5 4 10 -3 6 -8 10 -11 10 -2 0
-4 -4 -4 -10z"/>
<path d="M22320 8616 c0 -8 5 -18 10 -21 6 -3 10 3 10 14 0 12 -4 21 -10 21
-5 0 -10 -6 -10 -14z"/>
<path d="M21050 8600 c0 -5 5 -10 11 -10 5 0 7 5 4 10 -3 6 -8 10 -11 10 -2 0
-4 -4 -4 -10z"/>
<path d="M21525 8597 c-4 -10 -5 -21 -1 -24 10 -10 18 4 13 24 -4 17 -4 17
-12 0z"/>
<path d="M22350 8556 c0 -20 5 -36 10 -36 6 0 10 13 10 29 0 17 -4 33 -10 36
-6 4 -10 -8 -10 -29z"/>
<path d="M21100 8550 c0 -5 9 -10 20 -10 11 0 20 5 20 10 0 6 -9 10 -20 10
-11 0 -20 -4 -20 -10z"/>
<path d="M21425 8450 c-3 -5 -1 -10 4 -10 6 0 11 5 11 10 0 6 -2 10 -4 10 -3
0 -8 -4 -11 -10z"/>
<path d="M21375 8430 c-4 -6 5 -10 20 -10 15 0 24 4 20 10 -3 6 -12 10 -20 10
-8 0 -17 -4 -20 -10z"/>
<path d="M21220 8416 c0 -8 5 -18 10 -21 6 -3 10 3 10 14 0 12 -4 21 -10 21
-5 0 -10 -6 -10 -14z"/>
<path d="M21325 8400 c-3 -5 3 -10 14 -10 11 0 23 5 26 10 3 6 -3 10 -14 10
-11 0 -23 -4 -26 -10z"/>
<path d="M20875 8380 c-4 -6 5 -10 20 -10 15 0 24 4 20 10 -3 6 -12 10 -20 10
-8 0 -17 -4 -20 -10z"/>
<path d="M21250 8321 c0 -49 -4 -72 -15 -81 -17 -14 -21 -70 -5 -70 6 0 10 6
10 14 0 7 7 19 15 26 9 8 15 36 17 83 3 66 5 72 26 75 31 5 17 22 -19 22 l-29
0 0 -69z"/>
<path d="M20925 8350 c3 -5 8 -10 11 -10 2 0 4 5 4 10 0 6 -5 10 -11 10 -5 0
-7 -4 -4 -10z"/>
<path d="M20950 8330 c0 -5 5 -10 11 -10 5 0 7 5 4 10 -3 6 -8 10 -11 10 -2 0
-4 -4 -4 -10z"/>
<path d="M20975 8300 c3 -5 8 -10 11 -10 2 0 4 5 4 10 0 6 -5 10 -11 10 -5 0
-7 -4 -4 -10z"/>
<path d="M21000 8280 c0 -5 16 -10 36 -10 21 0 33 4 29 10 -3 6 -19 10 -36 10
-16 0 -29 -4 -29 -10z"/>
<path d="M21075 8250 c3 -5 38 -10 76 -10 44 0 68 4 64 10 -3 6 -38 10 -76 10
-44 0 -68 -4 -64 -10z"/>
<path d="M22100 8180 c0 -5 5 -10 11 -10 5 0 7 5 4 10 -3 6 -8 10 -11 10 -2 0
-4 -4 -4 -10z"/>
<path d="M21200 8140 c0 -11 5 -20 10 -20 6 0 10 9 10 20 0 11 -4 20 -10 20
-5 0 -10 -9 -10 -20z"/>
<path d="M22120 8140 c0 -11 5 -20 10 -20 6 0 10 9 10 20 0 11 -4 20 -10 20
-5 0 -10 -9 -10 -20z"/>
<path d="M22420 8125 c0 -31 3 -35 27 -35 25 0 25 1 10 18 -10 10 -17 26 -17
35 0 9 -4 17 -10 17 -5 0 -10 -16 -10 -35z"/>
<path d="M21175 8097 c-4 -10 -5 -21 -1 -24 10 -10 18 4 13 24 -4 17 -4 17
-12 0z"/>
<path d="M22150 8100 c0 -5 5 -10 11 -10 5 0 7 5 4 10 -3 6 -8 10 -11 10 -2 0
-4 -4 -4 -10z"/>
<path d="M22170 8066 c0 -8 5 -18 10 -21 6 -3 10 3 10 14 0 12 -4 21 -10 21
-5 0 -10 -6 -10 -14z"/>
<path d="M22400 8059 c0 -11 5 -17 10 -14 6 3 10 13 10 21 0 8 -4 14 -10 14
-5 0 -10 -9 -10 -21z"/>
<path d="M21200 8026 c0 -20 5 -36 10 -36 6 0 10 13 10 29 0 17 -4 33 -10 36
-6 4 -10 -8 -10 -29z"/>
<path d="M7563 8032 c-7 -4 -21 -35 -32 -67 -10 -33 -22 -68 -26 -77 -5 -14
-2 -18 13 -18 11 0 22 8 25 20 8 31 65 28 77 -4 7 -18 14 -23 30 -19 13 3 17
10 12 17 -4 6 -16 38 -27 71 -26 83 -39 98 -72 77z m32 -63 c8 -24 1 -34 -19
-26 -9 4 -12 14 -9 26 7 27 20 27 28 0z"/>
<path d="M7694 8027 c-9 -24 0 -162 11 -160 6 1 11 10 13 20 11 67 12 68 35
22 12 -24 27 -44 32 -43 10 1 26 29 41 69 6 15 9 9 13 -25 10 -74 26 -47 26
42 0 71 -2 83 -18 86 -13 3 -24 -10 -41 -50 l-24 -53 -11 28 c-6 15 -15 38
-21 52 -10 27 -47 35 -56 12z"/>
<path d="M8006 8024 c-20 -20 -20 -34 -1 -34 8 0 15 5 15 10 0 6 11 10 25 10
38 0 31 -26 -22 -83 -40 -43 -44 -51 -29 -59 21 -12 101 -6 101 7 0 6 -10 11
-22 13 -29 4 -29 10 2 46 41 48 25 106 -30 106 -13 0 -31 -7 -39 -16z"/>
<path d="M8159 8023 c-20 -23 -20 -123 -1 -145 18 -22 55 -23 75 -3 20 20 17
142 -3 156 -23 14 -56 11 -71 -8z m61 -33 c0 -15 -7 -20 -25 -20 -24 0 -34 18
-18 33 15 15 43 7 43 -13z m-2 -78 c3 -16 -2 -22 -17 -22 -24 0 -35 15 -27 36
9 23 40 13 44 -14z"/>
<path d="M22370 8010 c0 -11 5 -20 10 -20 6 0 10 9 10 20 0 11 -4 20 -10 20
-5 0 -10 -9 -10 -20z"/>
<path d="M20750 7991 c0 -12 5 -21 10 -21 6 0 10 6 10 14 0 8 -4 18 -10 21 -5
3 -10 -3 -10 -14z"/>
<path d="M22225 8000 c3 -5 8 -10 11 -10 2 0 4 5 4 10 0 6 -5 10 -11 10 -5 0
-7 -4 -4 -10z"/>
<path d="M21220 7966 c0 -8 5 -18 10 -21 6 -3 10 3 10 14 0 12 -4 21 -10 21
-5 0 -10 -6 -10 -14z"/>
<path d="M20727 7953 c-11 -11 -8 -233 3 -233 6 0 10 47 10 120 0 66 -1 120
-3 120 -2 0 -7 -3 -10 -7z"/>
<path d="M22275 7950 c3 -5 8 -10 11 -10 2 0 4 5 4 10 0 6 -5 10 -11 10 -5 0
-7 -4 -4 -10z"/>
<path d="M22325 7950 c-3 -5 -1 -10 4 -10 6 0 11 5 11 10 0 6 -2 10 -4 10 -3
0 -8 -4 -11 -10z"/>
<path d="M21250 7910 c0 -11 5 -20 10 -20 6 0 10 9 10 20 0 11 -4 20 -10 20
-5 0 -10 -9 -10 -20z"/>
<path d="M21720 7910 c0 -11 5 -20 10 -20 6 0 10 9 10 20 0 11 -4 20 -10 20
-5 0 -10 -9 -10 -20z"/>
<path d="M22275 7900 c-3 -5 -1 -10 4 -10 6 0 11 5 11 10 0 6 -2 10 -4 10 -3
0 -8 -4 -11 -10z"/>
<path d="M22225 7880 c-4 -6 5 -10 20 -10 15 0 24 4 20 10 -3 6 -12 10 -20 10
-8 0 -17 -4 -20 -10z"/>
<path d="M21270 7866 c0 -8 5 -18 10 -21 6 -3 10 3 10 14 0 12 -4 21 -10 21
-5 0 -10 -6 -10 -14z"/>
<path d="M21700 7859 c0 -11 5 -17 10 -14 6 3 10 13 10 21 0 8 -4 14 -10 14
-5 0 -10 -9 -10 -21z"/>
<path d="M22200 7849 c0 -5 5 -7 10 -4 6 3 10 8 10 11 0 2 -4 4 -10 4 -5 0
-10 -5 -10 -11z"/>
<path d="M576 7841 c-4 -6 -27 -11 -51 -11 -24 0 -47 -4 -50 -10 -4 -6 -88
-10 -221 -10 -136 0 -214 4 -214 10 0 6 -9 10 -20 10 -25 0 -26 -28 -2 -46 21
-17 437 -20 447 -4 3 6 45 10 92 10 79 0 88 -2 109 -25 13 -14 30 -25 38 -25
8 0 18 -4 21 -10 3 -5 19 -10 34 -10 16 0 34 -7 41 -15 9 -11 35 -15 106 -15
l94 0 0 -30 c0 -23 12 -42 50 -79 43 -42 50 -54 50 -88 0 -41 23 -73 51 -73
17 0 49 -35 49 -54 0 -7 7 -19 15 -26 8 -7 15 -21 15 -31 0 -15 7 -19 35 -19
19 0 35 -4 35 -10 0 -5 14 -10 32 -10 23 0 40 -10 69 -40 21 -22 44 -40 52
-40 7 0 28 -16 47 -35 19 -19 41 -35 51 -35 9 0 25 -11 35 -25 10 -14 26 -25
35 -25 9 0 22 -7 29 -15 7 -8 21 -15 31 -15 11 0 19 -4 19 -10 0 -5 8 -10 19
-10 10 0 24 -7 31 -15 7 -8 25 -15 41 -15 15 0 31 -4 34 -10 3 -5 15 -10 26
-10 11 0 22 -7 25 -15 4 -8 14 -15 24 -15 11 0 22 -4 25 -10 3 -5 14 -10 24
-10 10 0 27 -11 37 -25 10 -14 26 -25 34 -25 20 0 110 -91 110 -110 0 -9 11
-24 25 -34 22 -16 25 -27 25 -77 0 -33 4 -59 10 -59 6 0 10 -20 10 -44 0 -26
6 -48 15 -56 8 -7 15 -25 15 -39 0 -16 10 -37 25 -51 15 -14 25 -35 25 -51 0
-15 5 -31 10 -34 6 -3 10 -30 10 -59 0 -35 5 -58 15 -66 13 -11 15 -55 15
-281 0 -173 4 -269 10 -269 6 0 10 -10 10 -23 0 -13 5 -28 10 -33 7 -7 3 -17
-10 -32 -31 -33 -23 -48 9 -16 47 47 82 74 95 74 7 0 16 4 21 9 6 6 40 11 78
13 37 2 67 8 67 13 0 17 -109 18 -145 1 -18 -9 -38 -16 -43 -16 -6 0 -12 -5
-14 -12 -3 -7 -13 -5 -31 7 l-27 17 0 284 c0 183 -4 284 -10 284 -5 0 -10 20
-10 44 0 26 -6 48 -15 56 -8 7 -15 21 -15 31 0 11 -4 19 -10 19 -5 0 -10 8
-10 19 0 10 -7 24 -15 31 -9 8 -15 30 -15 56 0 24 -4 44 -10 44 -5 0 -10 20
-10 44 0 26 -6 48 -15 56 -9 7 -15 29 -15 52 0 32 -6 45 -35 72 -19 19 -35 40
-35 48 0 8 -18 32 -40 53 -22 21 -40 47 -40 57 0 11 -7 18 -18 18 -10 0 -29
11 -42 25 -13 14 -32 25 -42 25 -10 0 -18 5 -18 10 0 6 -8 10 -19 10 -10 0
-24 7 -31 15 -7 8 -21 15 -31 15 -11 0 -19 5 -19 10 0 6 -16 10 -35 10 -22 0
-38 6 -41 15 -4 8 -14 15 -24 15 -11 0 -22 5 -25 10 -3 6 -15 10 -26 10 -11 0
-22 7 -25 15 -4 8 -14 15 -23 15 -10 0 -28 11 -41 25 -13 14 -30 25 -38 25 -8
0 -29 16 -48 35 -18 19 -39 35 -46 35 -8 0 -32 18 -53 40 -27 27 -48 40 -66
40 -15 0 -31 5 -34 10 -3 6 -19 10 -34 10 -30 0 -71 36 -71 63 0 9 -4 17 -9
17 -5 0 -11 10 -13 23 -2 14 -11 23 -25 25 -18 3 -23 10 -23 33 0 22 -12 41
-49 77 -43 42 -50 55 -53 93 -2 37 -7 45 -25 47 -13 2 -23 8 -23 13 0 5 -38 9
-85 9 -67 0 -87 3 -91 15 -4 9 -19 15 -40 15 -19 0 -34 5 -34 10 0 6 -8 10
-18 10 -10 0 -29 11 -42 25 -13 14 -35 25 -50 25 -14 0 -31 5 -37 11 -8 8 -13
8 -17 0z"/>
<path d="M21670 7810 c0 -11 5 -20 10 -20 6 0 10 9 10 20 0 11 -4 20 -10 20
-5 0 -10 -9 -10 -20z"/>
<path d="M7186 7801 c-4 -5 -20 -12 -36 -16 -17 -4 -30 -11 -30 -16 0 -5 -7
-9 -15 -9 -8 0 -15 -3 -15 -7 0 -5 -14 -22 -30 -40 -17 -18 -30 -38 -30 -44 0
-7 9 -3 20 9 11 12 20 25 20 31 0 5 14 14 30 20 17 5 30 15 30 20 0 6 8 11 18
11 10 0 22 4 28 9 5 6 39 11 77 13 37 2 68 8 70 13 3 13 -129 19 -137 6z"/>
<path d="M21320 7790 c0 -11 5 -20 10 -20 6 0 10 9 10 20 0 11 -4 20 -10 20
-5 0 -10 -9 -10 -20z"/>
<path d="M22150 7799 c0 -5 5 -7 10 -4 6 3 10 8 10 11 0 2 -4 4 -10 4 -5 0
-10 -5 -10 -11z"/>
<path d="M7335 7780 c-8 -13 20 -24 42 -16 15 6 15 8 3 16 -20 13 -37 12 -45
0z"/>
<path d="M7390 7750 c0 -5 7 -10 16 -10 8 0 12 5 9 10 -3 6 -10 10 -16 10 -5
0 -9 -4 -9 -10z"/>
<path d="M21350 7691 c0 -38 5 -73 10 -76 6 -3 10 -44 10 -90 0 -79 -1 -84
-22 -87 -41 -6 -24 -23 26 -26 58 -4 83 12 43 27 -26 10 -27 12 -27 100 0 49
-4 93 -10 96 -5 3 -10 30 -10 60 0 30 -4 57 -10 60 -6 4 -10 -20 -10 -64z"/>
<path d="M21625 7750 c-3 -5 -1 -10 4 -10 6 0 11 5 11 10 0 6 -2 10 -4 10 -3
0 -8 -4 -11 -10z"/>
<path d="M22100 7749 c0 -5 5 -7 10 -4 6 3 10 8 10 11 0 2 -4 4 -10 4 -5 0
-10 -5 -10 -11z"/>
<path d="M25100 7750 c0 -5 9 -10 20 -10 11 0 20 5 20 10 0 6 -9 10 -20 10
-11 0 -20 -4 -20 -10z"/>
<path d="M22055 7731 c-7 -12 12 -24 25 -16 11 7 4 25 -10 25 -5 0 -11 -4 -15
-9z"/>
<path d="M7425 7720 c3 -5 8 -10 11 -10 2 0 4 5 4 10 0 6 -5 10 -11 10 -5 0
-7 -4 -4 -10z"/>
<path d="M20750 7666 c0 -25 5 -46 10 -46 6 0 10 18 10 39 0 22 -4 43 -10 46
-6 4 -10 -12 -10 -39z"/>
<path d="M21550 7700 c0 -5 9 -10 20 -10 11 0 20 5 20 10 0 6 -9 10 -20 10
-11 0 -20 -4 -20 -10z"/>
<path d="M22025 7700 c-3 -5 -1 -10 4 -10 6 0 11 5 11 10 0 6 -2 10 -4 10 -3
0 -8 -4 -11 -10z"/>
<path d="M25175 7700 c3 -5 15 -10 26 -10 11 0 17 5 14 10 -3 6 -15 10 -26 10
-11 0 -17 -4 -14 -10z"/>
<path d="M26075 7700 c-3 -5 -1 -10 4 -10 6 0 11 5 11 10 0 6 -2 10 -4 10 -3
0 -8 -4 -11 -10z"/>
<path d="M21505 7681 c-7 -12 12 -24 25 -16 11 7 4 25 -10 25 -5 0 -11 -4 -15
-9z"/>
<path d="M25225 7680 c-8 -12 20 -24 35 -15 6 3 8 11 5 16 -8 12 -32 12 -40
-1z"/>
<path d="M26050 7659 c0 -11 5 -17 10 -14 6 3 10 13 10 21 0 8 -4 14 -10 14
-5 0 -10 -9 -10 -21z"/>
<path d="M21400 7650 c0 -5 20 -10 45 -10 25 0 45 5 45 10 0 6 -20 10 -45 10
-25 0 -45 -4 -45 -10z"/>
<path d="M21975 7650 c-3 -5 -1 -10 4 -10 6 0 11 5 11 10 0 6 -2 10 -4 10 -3
0 -8 -4 -11 -10z"/>
<path d="M25275 7650 c3 -5 15 -10 26 -10 11 0 17 5 14 10 -3 6 -15 10 -26 10
-11 0 -17 -4 -14 -10z"/>
<path d="M25625 7650 c-3 -5 -1 -10 4 -10 6 0 11 5 11 10 0 6 -2 10 -4 10 -3
0 -8 -4 -11 -10z"/>
<path d="M21950 7609 c0 -11 5 -17 10 -14 6 3 10 13 10 21 0 8 -4 14 -10 14
-5 0 -10 -9 -10 -21z"/>
<path d="M25600 7610 c0 -11 5 -20 10 -20 6 0 10 9 10 20 0 11 -4 20 -10 20
-5 0 -10 -9 -10 -20z"/>
<path d="M20770 7581 c0 -17 5 -33 10 -36 6 -4 10 8 10 29 0 20 -4 36 -10 36
-5 0 -10 -13 -10 -29z"/>
<path d="M25350 7600 c0 -5 5 -10 11 -10 5 0 7 5 4 10 -3 6 -8 10 -11 10 -2 0
-4 -4 -4 -10z"/>
<path d="M25475 7600 c-4 -6 8 -10 29 -10 20 0 36 5 36 10 0 6 -13 10 -29 10
-17 0 -33 -4 -36 -10z"/>
<path d="M25900 7600 c0 -5 14 -10 31 -10 18 0 37 -7 44 -17 16 -21 45 -10 45
17 0 18 -6 20 -60 20 -33 0 -60 -4 -60 -10z"/>
<path d="M25425 7580 c-8 -12 20 -24 35 -15 6 3 8 11 5 16 -8 12 -32 12 -40
-1z"/>
<path d="M25555 7581 c-7 -12 12 -24 25 -16 11 7 4 25 -10 25 -5 0 -11 -4 -15
-9z"/>
<path d="M25825 7581 c-7 -13 17 -24 40 -19 9 1 16 8 16 13 0 14 -48 19 -56 6z"/>
<path d="M21920 7560 c0 -11 5 -20 10 -20 6 0 10 9 10 20 0 11 -4 20 -10 20
-5 0 -10 -9 -10 -20z"/>
<path d="M25613 7565 c-7 -8 -13 -17 -13 -20 0 -10 209 -5 215 5 4 6 -25 10
-79 10 -47 0 -88 5 -91 10 -8 13 -18 12 -32 -5z"/>
<path d="M25400 7549 c0 -5 5 -7 10 -4 6 3 10 8 10 11 0 2 -4 4 -10 4 -5 0
-10 -5 -10 -11z"/>
<path d="M26025 7550 c3 -5 8 -10 11 -10 2 0 4 5 4 10 0 6 -5 10 -11 10 -5 0
-7 -4 -4 -10z"/>
<path d="M25075 7530 c-3 -5 0 -13 8 -16 23 -8 127 0 130 11 3 14 -129 19
-138 5z"/>
<path d="M25355 7531 c-7 -12 12 -24 25 -16 11 7 4 25 -10 25 -5 0 -11 -4 -15
-9z"/>
<path d="M21900 7475 c0 -30 5 -55 10 -55 6 0 10 25 10 55 0 30 -4 55 -10 55
-5 0 -10 -25 -10 -55z"/>
<path d="M26050 7510 c0 -11 5 -20 10 -20 6 0 10 9 10 20 0 11 -4 20 -10 20
-5 0 -10 -9 -10 -20z"/>
<path d="M20825 7500 c3 -5 8 -10 11 -10 2 0 4 5 4 10 0 6 -5 10 -11 10 -5 0
-7 -4 -4 -10z"/>
<path d="M25225 7500 c3 -5 15 -10 26 -10 11 0 17 5 14 10 -3 6 -15 10 -26 10
-11 0 -17 -4 -14 -10z"/>
<path d="M25300 7500 c0 -5 9 -10 20 -10 11 0 20 5 20 10 0 6 -9 10 -20 10
-11 0 -20 -4 -20 -10z"/>
<path d="M22425 7480 c-3 -5 0 -13 8 -16 23 -8 82 0 82 11 0 14 -82 19 -90 5z"/>
<path d="M7028 7469 c-8 -23 22 -63 89 -119 7 -5 16 -10 21 -10 6 0 23 -7 38
-15 37 -19 124 -19 150 0 10 8 26 15 34 15 22 0 107 83 102 98 -2 8 -14 2 -33
-16 -16 -16 -42 -35 -57 -42 -15 -7 -35 -16 -44 -21 -26 -13 -112 -11 -160 4
-41 12 -106 64 -125 101 -8 14 -12 15 -15 5z"/>
<path d="M26070 7460 c0 -11 5 -20 10 -20 6 0 10 9 10 20 0 11 -4 20 -10 20
-5 0 -10 -9 -10 -20z"/>
<path d="M20875 7450 c3 -5 8 -10 11 -10 2 0 4 5 4 10 0 6 -5 10 -11 10 -5 0
-7 -4 -4 -10z"/>
<path d="M22380 7450 c0 -5 6 -10 14 -10 8 0 18 5 21 10 3 6 -3 10 -14 10 -12
0 -21 -4 -21 -10z"/>
<path d="M22525 7450 c3 -5 15 -10 26 -10 11 0 17 5 14 10 -3 6 -15 10 -26 10
-11 0 -17 -4 -14 -10z"/>
<path d="M25250 7449 c0 -5 5 -7 10 -4 6 3 10 8 10 11 0 2 -4 4 -10 4 -5 0
-10 -5 -10 -11z"/>
<path d="M26050 7409 c0 -11 5 -17 10 -14 6 3 10 13 10 21 0 8 -4 14 -10 14
-5 0 -10 -9 -10 -21z"/>
<path d="M20925 7400 c3 -5 8 -10 11 -10 2 0 4 5 4 10 0 6 -5 10 -11 10 -5 0
-7 -4 -4 -10z"/>
<path d="M21275 7400 c-3 -5 3 -10 14 -10 11 0 23 5 26 10 3 6 -3 10 -14 10
-11 0 -23 -4 -26 -10z"/>
<path d="M21450 7400 c0 -5 20 -10 45 -10 25 0 45 5 45 10 0 6 -20 10 -45 10
-25 0 -45 -4 -45 -10z"/>
<path d="M21875 7397 c-4 -10 -5 -21 -1 -24 10 -10 18 4 13 24 -4 17 -4 17
-12 0z"/>
<path d="M22600 7391 c0 -12 5 -21 10 -21 6 0 10 6 10 14 0 8 -4 18 -10 21 -5
3 -10 -3 -10 -14z"/>
<path d="M25200 7399 c0 -5 5 -7 10 -4 6 3 10 8 10 11 0 2 -4 4 -10 4 -5 0
-10 -5 -10 -11z"/>
<path d="M21225 7380 c-8 -12 20 -24 35 -15 6 3 8 11 5 16 -8 12 -32 12 -40
-1z"/>
<path d="M21555 7381 c-7 -12 12 -24 25 -16 11 7 4 25 -10 25 -5 0 -11 -4 -15
-9z"/>
<path d="M26020 7360 c0 -11 5 -20 10 -20 6 0 10 9 10 20 0 11 -4 20 -10 20
-5 0 -10 -9 -10 -20z"/>
<path d="M20975 7350 c3 -5 15 -10 26 -10 11 0 17 5 14 10 -3 6 -15 10 -26 10
-11 0 -17 -4 -14 -10z"/>
<path d="M21175 7350 c-3 -5 3 -10 14 -10 11 0 23 5 26 10 3 6 -3 10 -14 10
-11 0 -23 -4 -26 -10z"/>
<path d="M21600 7350 c0 -5 9 -10 20 -10 11 0 20 5 20 10 0 6 -9 10 -20 10
-11 0 -20 -4 -20 -10z"/>
<path d="M21850 7340 c0 -11 5 -20 10 -20 6 0 10 9 10 20 0 11 -4 20 -10 20
-5 0 -10 -9 -10 -20z"/>
<path d="M22625 7350 c3 -5 8 -10 11 -10 2 0 4 5 4 10 0 6 -5 10 -11 10 -5 0
-7 -4 -4 -10z"/>
<path d="M21025 7330 c-8 -12 20 -24 35 -15 6 3 8 11 5 16 -8 12 -32 12 -40
-1z"/>
<path d="M21125 7330 c-8 -12 20 -24 35 -15 6 3 8 11 5 16 -8 12 -32 12 -40
-1z"/>
<path d="M25975 7330 c-8 -12 20 -24 35 -15 6 3 8 11 5 16 -8 12 -32 12 -40
-1z"/>
<path d="M21070 7290 c0 -11 4 -20 8 -20 5 0 17 9 27 20 18 20 17 20 -8 20
-20 0 -27 -5 -27 -20z"/>
<path d="M21675 7300 c3 -5 8 -10 11 -10 2 0 4 5 4 10 0 6 -5 10 -11 10 -5 0
-7 -4 -4 -10z"/>
<path d="M21825 7300 c-3 -5 -1 -10 4 -10 6 0 11 5 11 10 0 6 -2 10 -4 10 -3
0 -8 -4 -11 -10z"/>
<path d="M22675 7300 c3 -5 8 -10 11 -10 2 0 4 5 4 10 0 6 -5 10 -11 10 -5 0
-7 -4 -4 -10z"/>
<path d="M25950 7299 c0 -5 5 -7 10 -4 6 3 10 8 10 11 0 2 -4 4 -10 4 -5 0
-10 -5 -10 -11z"/>
<path d="M22705 7281 c-7 -12 12 -24 25 -16 11 7 4 25 -10 25 -5 0 -11 -4 -15
-9z"/>
<path d="M21800 7259 c0 -11 5 -17 10 -14 6 3 10 13 10 21 0 8 -4 14 -10 14
-5 0 -10 -9 -10 -21z"/>
<path d="M21050 7249 c0 -5 5 -7 10 -4 6 3 10 8 10 11 0 2 -4 4 -10 4 -5 0
-10 -5 -10 -11z"/>
<path d="M21725 7250 c3 -5 8 -10 11 -10 2 0 4 5 4 10 0 6 -5 10 -11 10 -5 0
-7 -4 -4 -10z"/>
<path d="M22750 7250 c0 -5 5 -10 11 -10 5 0 7 5 4 10 -3 6 -8 10 -11 10 -2 0
-4 -4 -4 -10z"/>
<path d="M25900 7249 c0 -5 5 -7 10 -4 6 3 10 8 10 11 0 2 -4 4 -10 4 -5 0
-10 -5 -10 -11z"/>
<path d="M21757 7234 c-16 -16 -7 -44 14 -44 15 0 20 5 17 22 -3 22 -19 33
-31 22z"/>
<path d="M21000 7190 c0 -11 5 -20 10 -20 6 0 10 9 10 20 0 11 -4 20 -10 20
-5 0 -10 -9 -10 -20z"/>
<path d="M25030 7200 c0 -5 9 -10 21 -10 11 0 17 5 14 10 -3 6 -13 10 -21 10
-8 0 -14 -4 -14 -10z"/>
<path d="M25850 7199 c0 -5 5 -7 10 -4 6 3 10 8 10 11 0 2 -4 4 -10 4 -5 0
-10 -5 -10 -11z"/>
<path d="M21675 7181 c-7 -13 17 -24 40 -19 9 1 16 8 16 13 0 14 -48 19 -56 6z"/>
<path d="M20975 7150 c-3 -5 -1 -10 4 -10 6 0 11 5 11 10 0 6 -2 10 -4 10 -3
0 -8 -4 -11 -10z"/>
<path d="M21625 7150 c-3 -5 3 -10 14 -10 11 0 23 5 26 10 3 6 -3 10 -14 10
-11 0 -23 -4 -26 -10z"/>
<path d="M21825 7150 c3 -5 8 -10 11 -10 2 0 4 5 4 10 0 6 -5 10 -11 10 -5 0
-7 -4 -4 -10z"/>
<path d="M25100 7066 c0 -57 4 -96 10 -96 6 0 10 36 10 89 0 50 -4 93 -10 96
-6 4 -10 -28 -10 -89z"/>
<path d="M25350 7141 c0 -12 5 -21 10 -21 6 0 10 6 10 14 0 8 -4 18 -10 21 -5
3 -10 -3 -10 -14z"/>
<path d="M25800 7149 c0 -5 5 -7 10 -4 6 3 10 8 10 11 0 2 -4 4 -10 4 -5 0
-10 -5 -10 -11z"/>
<path d="M7513 7132 c-7 -4 -21 -35 -32 -67 -10 -33 -22 -68 -26 -77 -5 -14
-2 -18 13 -18 11 0 22 8 25 20 8 31 65 28 77 -4 7 -18 14 -23 30 -19 13 3 17
10 12 17 -4 6 -16 38 -27 71 -26 83 -39 98 -72 77z m32 -63 c8 -24 1 -34 -19
-26 -9 4 -12 14 -9 26 7 27 20 27 28 0z"/>
<path d="M7644 7127 c-9 -24 0 -162 11 -160 6 1 11 10 13 20 11 67 12 68 35
22 12 -24 27 -44 32 -43 10 1 26 29 41 69 6 15 9 9 13 -25 10 -74 26 -47 26
42 0 71 -2 83 -18 86 -13 3 -24 -10 -41 -50 l-24 -53 -11 28 c-6 15 -15 38
-21 52 -10 27 -47 35 -56 12z"/>
<path d="M7977 7112 c-32 -33 -34 -46 -7 -39 17 4 19 -1 22 -49 2 -30 8 -55
13 -57 12 -3 19 153 7 165 -4 4 -20 -5 -35 -20z"/>
<path d="M8112 7117 c-30 -31 -31 -108 -2 -137 24 -24 53 -26 74 -4 31 31 12
80 -34 86 -17 2 -25 9 -25 23 0 23 34 33 46 14 6 -10 11 -11 19 -3 8 8 7 16
-5 28 -23 22 -48 20 -73 -7z m56 -105 c3 -18 -1 -22 -22 -22 -19 0 -26 5 -26
18 0 39 43 43 48 4z"/>
<path d="M21575 7130 c-8 -12 20 -24 35 -15 6 3 8 11 5 16 -8 12 -32 12 -40
-1z"/>
<path d="M20950 7109 c0 -11 5 -17 10 -14 6 3 10 13 10 21 0 8 -4 14 -10 14
-5 0 -10 -9 -10 -21z"/>
<path d="M21550 7090 c0 -11 5 -20 10 -20 6 0 10 9 10 20 0 11 -4 20 -10 20
-5 0 -10 -9 -10 -20z"/>
<path d="M21875 7100 c3 -5 8 -10 11 -10 2 0 4 5 4 10 0 6 -5 10 -11 10 -5 0
-7 -4 -4 -10z"/>
<path d="M25370 7050 c0 -33 4 -60 10 -60 6 0 10 27 10 60 0 33 -4 60 -10 60
-6 0 -10 -27 -10 -60z"/>
<path d="M25725 7100 c-3 -5 3 -10 14 -10 11 0 23 5 26 10 3 6 -3 10 -14 10
-11 0 -23 -4 -26 -10z"/>
<path d="M20920 7060 c0 -11 5 -20 10 -20 6 0 10 9 10 20 0 11 -4 20 -10 20
-5 0 -10 -9 -10 -20z"/>
<path d="M21900 7060 c0 -11 5 -20 10 -20 6 0 10 9 10 20 0 11 -4 20 -10 20
-5 0 -10 -9 -10 -20z"/>
<path d="M21525 7047 c-4 -10 -5 -21 -1 -24 10 -10 18 4 13 24 -4 17 -4 17
-12 0z"/>
<path d="M25675 7050 c-3 -5 -1 -10 4 -10 6 0 11 5 11 10 0 6 -2 10 -4 10 -3
0 -8 -4 -11 -10z"/>
<path d="M20900 7000 c0 -16 5 -30 10 -30 6 0 10 14 10 30 0 17 -4 30 -10 30
-5 0 -10 -13 -10 -30z"/>
<path d="M21920 7016 c0 -8 5 -18 10 -21 6 -3 10 3 10 14 0 12 -4 21 -10 21
-5 0 -10 -6 -10 -14z"/>
<path d="M25650 7009 c0 -11 5 -17 10 -14 6 3 10 13 10 21 0 8 -4 14 -10 14
-5 0 -10 -9 -10 -21z"/>
<path d="M21500 6999 c0 -5 5 -7 10 -4 6 3 10 8 10 11 0 2 -4 4 -10 4 -5 0
-10 -5 -10 -11z"/>
<path d="M21455 6981 c-7 -12 12 -24 25 -16 11 7 4 25 -10 25 -5 0 -11 -4 -15
-9z"/>
<path d="M21950 6960 c0 -11 5 -20 10 -20 6 0 10 9 10 20 0 11 -4 20 -10 20
-5 0 -10 -9 -10 -20z"/>
<path d="M25350 6950 c0 -16 5 -30 10 -30 6 0 10 14 10 30 0 17 -4 30 -10 30
-5 0 -10 -13 -10 -30z"/>
<path d="M25620 6960 c0 -11 5 -20 10 -20 6 0 10 9 10 20 0 11 -4 20 -10 20
-5 0 -10 -9 -10 -20z"/>
<path d="M20875 6947 c-4 -10 -5 -21 -1 -24 10 -10 18 4 13 24 -4 17 -4 17
-12 0z"/>
<path d="M21425 6950 c-3 -5 -1 -10 4 -10 6 0 11 5 11 10 0 6 -2 10 -4 10 -3
0 -8 -4 -11 -10z"/>
<path d="M25120 6925 c0 -19 5 -35 10 -35 6 0 10 9 10 19 0 11 5 23 10 26 17
10 11 25 -10 25 -16 0 -20 -7 -20 -35z"/>
<path d="M21400 6909 c0 -11 5 -17 10 -14 6 3 10 13 10 21 0 8 -4 14 -10 14
-5 0 -10 -9 -10 -21z"/>
<path d="M21970 6920 c0 -5 -16 -10 -35 -10 -19 0 -35 -4 -35 -10 0 -5 20 -10
45 -10 38 0 45 3 45 20 0 11 -4 20 -10 20 -5 0 -10 -4 -10 -10z"/>
<path d="M25600 6875 c0 -30 5 -55 10 -55 6 0 10 25 10 55 0 30 -4 55 -10 55
-5 0 -10 -25 -10 -55z"/>
<path d="M7136 6901 c-4 -5 -20 -12 -36 -16 -17 -4 -30 -11 -30 -16 0 -5 -7
-9 -15 -9 -8 0 -15 -3 -15 -7 0 -5 -14 -22 -30 -40 -17 -18 -30 -38 -30 -44 0
-7 9 -3 20 9 11 12 20 25 20 31 0 5 14 14 30 20 17 5 30 15 30 20 0 6 8 11 18
11 10 0 22 4 28 9 5 6 39 11 77 13 37 2 68 8 70 13 3 13 -129 19 -137 6z"/>
<path d="M20850 6899 c0 -5 5 -7 10 -4 6 3 10 8 10 11 0 2 -4 4 -10 4 -5 0
-10 -5 -10 -11z"/>
<path d="M25327 6903 c-11 -10 -8 -63 3 -63 6 0 10 16 10 35 0 36 -2 40 -13
28z"/>
<path d="M7285 6880 c-8 -13 20 -24 42 -16 15 6 15 8 3 16 -20 13 -37 12 -45
0z"/>
<path d="M20820 6860 c0 -11 5 -20 10 -20 6 0 10 9 10 20 0 11 -4 20 -10 20
-5 0 -10 -9 -10 -20z"/>
<path d="M21370 6860 c0 -11 5 -20 10 -20 6 0 10 9 10 20 0 11 -4 20 -10 20
-5 0 -10 -9 -10 -20z"/>
<path d="M25100 6859 c0 -11 5 -17 10 -14 6 3 10 13 10 21 0 8 -4 14 -10 14
-5 0 -10 -9 -10 -21z"/>
<path d="M7340 6850 c0 -5 7 -10 16 -10 8 0 12 5 9 10 -3 6 -10 10 -16 10 -5
0 -9 -4 -9 -10z"/>
<path d="M21825 6850 c-3 -5 3 -10 14 -10 11 0 23 5 26 10 3 6 -3 10 -14 10
-11 0 -23 -4 -26 -10z"/>
<path d="M22025 6850 c3 -5 8 -10 11 -10 2 0 4 5 4 10 0 6 -5 10 -11 10 -5 0
-7 -4 -4 -10z"/>
<path d="M25005 6830 c-3 -5 0 -13 9 -16 21 -8 71 -1 71 11 0 14 -72 19 -80 5z"/>
<path d="M7375 6820 c3 -5 8 -10 11 -10 2 0 4 5 4 10 0 6 -5 10 -11 10 -5 0
-7 -4 -4 -10z"/>
<path d="M20800 6809 c0 -11 5 -17 10 -14 6 3 10 13 10 21 0 8 -4 14 -10 14
-5 0 -10 -9 -10 -21z"/>
<path d="M21334 6809 c-19 -21 -19 -21 6 -18 14 2 26 12 28 22 5 23 -11 22
-34 -4z"/>
<path d="M22050 6810 c0 -11 5 -20 10 -20 6 0 10 9 10 20 0 11 -4 20 -10 20
-5 0 -10 -9 -10 -20z"/>
<path d="M25300 6809 c0 -11 5 -17 10 -14 6 3 10 13 10 21 0 8 -4 14 -10 14
-5 0 -10 -9 -10 -21z"/>
<path d="M21775 6800 c-3 -5 -1 -10 4 -10 6 0 11 5 11 10 0 6 -2 10 -4 10 -3
0 -8 -4 -11 -10z"/>
<path d="M24950 6800 c0 -5 9 -10 20 -10 11 0 20 5 20 10 0 6 -9 10 -20 10
-11 0 -20 -4 -20 -10z"/>
<path d="M25100 6800 c0 -5 5 -10 11 -10 5 0 7 5 4 10 -3 6 -8 10 -11 10 -2 0
-4 -4 -4 -10z"/>
<path d="M25620 6740 c0 -40 4 -70 10 -70 6 0 10 30 10 70 0 40 -4 70 -10 70
-6 0 -10 -30 -10 -70z"/>
<path d="M21275 6780 c-8 -12 20 -24 35 -15 6 3 8 11 5 16 -8 12 -32 12 -40
-1z"/>
<path d="M24905 6781 c-7 -12 12 -24 25 -16 11 7 4 25 -10 25 -5 0 -11 -4 -15
-9z"/>
<path d="M25125 6780 c-8 -12 20 -24 35 -15 6 3 8 11 5 16 -8 12 -32 12 -40
-1z"/>
<path d="M25255 6781 c-7 -12 12 -24 25 -16 11 7 4 25 -10 25 -5 0 -11 -4 -15
-9z"/>
<path d="M20770 6766 c0 -8 5 -18 10 -21 6 -3 10 3 10 14 0 12 -4 21 -10 21
-5 0 -10 -6 -10 -14z"/>
<path d="M21230 6750 c0 -5 6 -10 14 -10 8 0 18 5 21 10 3 6 -3 10 -14 10 -12
0 -21 -4 -21 -10z"/>
<path d="M21700 6750 c0 -5 9 -10 20 -10 11 0 20 5 20 10 0 6 -9 10 -20 10
-11 0 -20 -4 -20 -10z"/>
<path d="M22100 6750 c0 -5 5 -10 11 -10 5 0 7 5 4 10 -3 6 -8 10 -11 10 -2 0
-4 -4 -4 -10z"/>
<path d="M24875 6750 c-3 -5 -1 -10 4 -10 6 0 11 5 11 10 0 6 -2 10 -4 10 -3
0 -8 -4 -11 -10z"/>
<path d="M25175 6750 c3 -5 19 -10 36 -10 16 0 29 5 29 10 0 6 -16 10 -36 10
-21 0 -33 -4 -29 -10z"/>
<path d="M24850 6709 c0 -11 5 -17 10 -14 6 3 10 13 10 21 0 8 -4 14 -10 14
-5 0 -10 -9 -10 -21z"/>
<path d="M21650 6699 c0 -5 5 -7 10 -4 6 3 10 8 10 11 0 2 -4 4 -10 4 -5 0
-10 -5 -10 -11z"/>
<path d="M22150 6700 c0 -5 5 -10 11 -10 5 0 7 5 4 10 -3 6 -8 10 -11 10 -2 0
-4 -4 -4 -10z"/>
<path d="M22625 6680 c-3 -5 0 -13 8 -16 23 -8 102 0 102 11 0 14 -102 19
-110 5z"/>
<path d="M22200 6650 c0 -5 9 -10 20 -10 11 0 20 5 20 10 0 6 -9 10 -20 10
-11 0 -20 -4 -20 -10z"/>
<path d="M22525 6650 c-4 -6 11 -10 39 -10 25 0 48 5 51 10 4 6 -11 10 -39 10
-25 0 -48 -4 -51 -10z"/>
<path d="M25650 6601 c0 -34 4 -61 10 -61 6 0 10 24 10 54 0 30 -4 58 -10 61
-6 4 -10 -17 -10 -54z"/>
<path d="M22425 6630 c-3 -5 0 -13 8 -16 23 -8 82 0 82 11 0 14 -82 19 -90 5z"/>
<path d="M22275 6600 c3 -5 35 -10 70 -10 35 0 67 5 70 10 4 6 -22 10 -70 10
-48 0 -74 -4 -70 -10z"/>
<path d="M6977 6563 c-8 -7 22 -53 53 -80 43 -38 49 -43 58 -43 6 0 23 -7 38
-15 37 -19 124 -19 150 0 10 8 26 15 36 15 22 0 106 82 100 98 -2 8 -15 2 -34
-17 -69 -67 -153 -89 -240 -64 -49 14 -73 28 -109 65 -26 26 -49 44 -52 41z"/>
<path d="M25670 6500 c0 -16 5 -30 10 -30 6 0 10 14 10 30 0 17 -4 30 -10 30
-5 0 -10 -13 -10 -30z"/>
<path d="M26212 6481 c-11 -7 -11 -9 2 -14 10 -4 16 -1 16 8 0 17 -1 17 -18 6z"/>
<path d="M25650 6440 c0 -11 5 -20 10 -20 6 0 10 9 10 20 0 11 -4 20 -10 20
-5 0 -10 -9 -10 -20z"/>
<path d="M2864 5882 c-6 -4 -20 -34 -32 -67 -11 -33 -24 -68 -27 -77 -5 -14
-2 -18 13 -18 11 0 22 8 25 20 8 31 65 28 77 -4 7 -18 14 -23 30 -19 13 3 17
10 12 17 -4 6 -16 38 -27 71 -22 72 -44 95 -71 77z m31 -63 c8 -24 1 -34 -19
-26 -9 4 -12 14 -9 26 7 27 20 27 28 0z"/>
<path d="M2994 5877 c-9 -24 0 -162 11 -160 6 1 11 10 13 20 11 67 12 68 35
22 12 -24 27 -44 32 -43 10 1 26 29 41 69 6 15 9 9 13 -25 10 -74 26 -47 26
42 0 71 -2 83 -18 86 -13 3 -24 -10 -41 -50 l-24 -53 -11 28 c-6 15 -15 38
-21 52 -10 27 -47 35 -56 12z"/>
<path d="M3306 5874 c-20 -20 -20 -34 -1 -34 8 0 15 5 15 10 0 6 11 10 25 10
38 0 31 -26 -22 -83 -40 -43 -44 -51 -29 -59 21 -12 101 -6 101 7 0 6 -10 11
-22 13 -29 4 -29 7 2 44 42 49 25 108 -30 108 -13 0 -31 -7 -39 -16z"/>
<path d="M3456 5871 c-20 -22 -4 -40 19 -21 8 7 22 9 31 6 15 -6 15 -8 -1 -33
-16 -24 -16 -27 -1 -35 26 -15 20 -48 -8 -48 -13 0 -26 6 -29 13 -3 9 -8 9
-16 1 -16 -15 12 -44 43 -44 39 0 54 28 52 94 -2 44 -7 62 -21 72 -26 19 -49
17 -69 -5z"/>
<path d="M2635 5630 c-8 -13 20 -24 42 -16 15 6 15 8 3 16 -20 13 -37 12 -45
0z"/>
<path d="M2690 5600 c0 -5 7 -10 16 -10 8 0 12 5 9 10 -3 6 -10 10 -16 10 -5
0 -9 -4 -9 -10z"/>
<path d="M2725 5570 c3 -5 8 -10 11 -10 2 0 4 5 4 10 0 6 -5 10 -11 10 -5 0
-7 -4 -4 -10z"/>
<path d="M2327 5313 c-8 -7 22 -53 53 -80 43 -38 49 -43 58 -43 6 0 23 -7 38
-15 16 -8 50 -15 77 -15 39 0 47 -3 47 -19 0 -10 7 -21 15 -25 12 -4 15 -30
15 -141 0 -83 4 -135 10 -135 6 0 10 -56 10 -149 0 -89 -4 -152 -10 -156 -5
-3 -10 -30 -10 -60 0 -30 5 -57 10 -60 6 -3 10 -24 10 -46 0 -30 6 -46 25 -63
14 -13 25 -30 25 -38 0 -26 35 -48 75 -48 31 0 45 -7 76 -40 21 -22 44 -40 52
-40 17 0 77 -62 77 -79 0 -24 29 -41 68 -41 23 0 45 -6 52 -15 8 -10 30 -15
64 -15 43 0 57 -5 76 -25 21 -23 31 -25 106 -25 60 0 85 4 94 15 7 8 25 15 41
15 15 0 31 5 34 10 3 6 17 10 30 10 13 0 27 -4 30 -10 3 -5 19 -10 34 -10 16
0 34 -7 41 -15 7 -8 24 -15 39 -15 28 0 111 -73 111 -98 0 -22 40 -52 70 -52
17 0 30 -4 30 -10 0 -5 8 -10 18 -10 10 0 40 -22 67 -50 l49 -50 74 0 c74 0
102 12 102 42 0 17 61 78 78 78 7 0 31 19 53 42 l39 42 43 -42 c38 -37 48 -42
89 -42 33 0 48 5 52 16 4 11 13 14 31 10 22 -6 25 -3 25 18 0 34 -16 41 -37
16 -27 -31 -104 -28 -129 5 -10 14 -26 25 -36 25 -9 0 -20 5 -23 10 -12 19
-41 10 -75 -25 -19 -19 -42 -35 -52 -35 -11 0 -18 -7 -18 -18 0 -10 -22 -39
-48 -65 -43 -42 -52 -47 -94 -47 -43 0 -52 5 -99 50 -29 28 -58 50 -64 50 -7
0 -18 7 -25 15 -8 9 -30 15 -57 15 -33 0 -45 4 -49 18 -3 9 -10 25 -15 34 -5
10 -9 22 -9 28 0 22 -60 70 -89 70 -16 0 -33 5 -36 10 -3 6 -17 10 -30 10 -13
0 -30 7 -39 15 -8 8 -31 15 -51 15 -20 0 -43 -7 -51 -15 -9 -8 -26 -15 -39
-15 -13 0 -27 -4 -30 -10 -10 -16 -138 -12 -173 6 -18 8 -34 19 -37 25 -4 5
-26 9 -50 9 -24 0 -47 5 -50 10 -3 6 -23 10 -43 10 -32 0 -45 8 -85 48 -26 26
-47 55 -47 65 0 10 -8 17 -18 17 -10 0 -29 11 -42 25 -13 14 -31 25 -41 25
-10 0 -21 5 -24 10 -3 6 -17 10 -30 10 -13 0 -39 15 -59 34 -30 27 -36 40 -36
73 0 24 -6 46 -15 53 -9 8 -15 30 -15 57 0 30 5 45 15 49 12 5 15 33 15 169 0
132 -3 165 -15 175 -12 10 -15 39 -15 141 0 74 -4 130 -10 134 -19 12 -10 45
15 55 32 12 102 83 97 98 -2 8 -15 1 -34 -17 -33 -32 -102 -68 -147 -77 -16
-3 -57 2 -92 13 -50 14 -74 28 -110 65 -26 26 -49 44 -52 41z"/>
<path d="M24195 5128 c-4 -18 -11 -37 -15 -43 -4 -5 -10 -21 -12 -35 -3 -14
-9 -33 -13 -42 -11 -28 16 -22 40 9 17 21 27 25 48 19 18 -4 27 -13 27 -26 0
-13 7 -20 20 -20 25 0 25 1 -1 80 -12 36 -23 71 -25 78 -2 6 -17 12 -33 12
-25 0 -30 -5 -36 -32z m48 -59 c-17 -17 -31 5 -21 31 l10 25 9 -24 c5 -14 6
-28 2 -32z"/>
<path d="M24347 5153 c-4 -3 -7 -42 -7 -85 0 -63 3 -78 15 -78 10 0 15 10 15
33 0 50 11 52 31 7 27 -59 44 -53 75 25 7 16 9 11 12 -22 2 -29 8 -43 18 -43
11 0 14 18 14 85 0 82 -1 85 -23 85 -19 0 -27 -10 -41 -50 -17 -46 -36 -59
-36 -24 0 46 -50 91 -73 67z"/>
<path d="M24624 5144 c4 -11 12 -44 18 -74 11 -55 23 -80 39 -80 12 0 39 55
39 80 0 36 18 21 35 -30 17 -51 37 -64 53 -32 13 25 36 142 29 148 -11 12 -27
-8 -37 -47 -13 -46 -20 -44 -35 9 -15 53 -42 50 -65 -8 -11 -28 -20 -39 -23
-30 -3 8 -10 29 -15 45 -5 17 -17 32 -27 34 -14 2 -16 -1 -11 -15z"/>
<path d="M24874 5139 c4 -13 12 -46 18 -74 11 -51 24 -75 39 -75 12 0 39 55
39 80 0 36 18 21 35 -30 17 -51 37 -64 53 -32 13 25 36 142 29 148 -11 12 -27
-8 -37 -47 -13 -46 -20 -44 -35 9 -15 53 -42 50 -65 -8 -11 -28 -20 -39 -23
-30 -3 8 -10 29 -15 45 -5 17 -17 32 -27 34 -15 2 -17 -1 -11 -20z"/>
<path d="M25147 5153 c-4 -3 -7 -42 -7 -85 0 -61 3 -78 14 -78 9 0 16 12 18
33 3 28 7 33 36 37 43 7 46 24 4 28 -60 6 -51 52 11 52 15 0 27 5 27 10 0 11
-93 14 -103 3z"/>
<path d="M25427 5132 c-32 -33 -34 -46 -8 -37 18 5 20 0 23 -46 2 -31 8 -54
16 -57 9 -3 12 18 12 82 0 47 -4 86 -8 86 -5 0 -20 -13 -35 -28z"/>
<path d="M23852 4933 c-13 -2 -21 -10 -19 -16 2 -8 30 -12 76 -12 49 0 74 -4
80 -13 9 -15 41 -13 44 3 1 6 -9 12 -23 14 -14 1 -28 8 -31 13 -8 12 -91 19
-127 11z"/>
<path d="M23741 4870 c-22 -22 -41 -44 -41 -50 0 -5 -4 -10 -10 -10 -5 0 -10
-8 -10 -17 0 -14 3 -14 20 5 11 12 20 24 20 27 0 15 45 44 93 59 25 8 21 26
-7 26 -14 0 -40 -16 -65 -40z"/>
<path d="M24059 4859 c12 -12 25 -19 28 -15 7 7 -23 36 -38 36 -7 0 -3 -9 10
-21z"/>
<path d="M23650 4630 c0 -5 5 -10 10 -10 6 0 10 5 10 10 0 6 -4 10 -10 10 -5
0 -10 -4 -10 -10z"/>
<path d="M23677 4586 c-8 -20 95 -126 123 -126 10 0 22 -4 25 -10 10 -16 129
-12 171 6 41 17 128 97 118 107 -4 3 -25 -10 -48 -29 -22 -19 -53 -38 -69 -41
-15 -3 -30 -10 -33 -14 -3 -5 -30 -9 -60 -9 -49 0 -69 5 -114 32 -8 5 -23 11
-32 14 -10 4 -18 9 -18 13 -1 3 -14 21 -29 39 -23 26 -30 30 -34 18z"/>
<path d="M20141 4531 c-13 -8 -40 -74 -55 -133 -5 -22 -3 -28 10 -28 9 0 18 9
21 20 4 15 14 20 39 20 20 0 34 -5 34 -12 0 -23 16 -39 32 -33 16 6 13 23 -13
90 -4 11 -11 31 -15 45 -10 36 -28 47 -53 31z m29 -72 c0 -10 -7 -19 -15 -19
-15 0 -21 31 -9 43 11 10 24 -3 24 -24z"/>
<path d="M20274 4527 c-9 -24 1 -162 11 -162 6 0 12 20 15 45 l5 45 12 -30
c28 -74 54 -77 78 -9 12 36 14 37 19 14 3 -14 7 -34 8 -45 2 -11 8 -19 13 -17
6 1 10 39 10 85 0 80 0 82 -25 82 -20 0 -27 -8 -40 -47 -8 -27 -18 -48 -22
-48 -3 0 -12 17 -19 38 -6 20 -16 43 -22 50 -13 16 -36 15 -43 -1z"/>
<path d="M20594 4499 c-27 -30 -28 -31 -6 -26 24 6 29 -5 34 -73 5 -65 23 -31
26 50 3 92 -6 100 -54 49z"/>
<path d="M20766 4505 c-9 -13 -16 -29 -16 -35 0 -5 -4 -10 -9 -10 -7 0 -41
-54 -41 -65 0 -2 15 -5 33 -8 17 -3 41 -8 52 -11 11 -3 29 1 40 10 19 14 19
16 3 25 -14 8 -18 23 -18 64 0 62 -16 73 -44 30z m11 -61 c8 -21 -13 -42 -28
-27 -13 13 -5 43 11 43 6 0 13 -7 17 -16z"/>
<path d="M5131 4288 c-12 -40 -25 -79 -28 -85 -9 -23 21 -13 42 14 17 21 27
25 48 19 18 -4 27 -13 27 -26 0 -13 7 -20 20 -20 25 0 25 1 -1 80 -12 36 -23
71 -25 78 -2 6 -16 12 -32 12 -26 0 -30 -5 -51 -72z m62 -19 c-17 -17 -31 5
-21 31 l10 25 9 -24 c5 -14 6 -28 2 -32z"/>
<path d="M5297 4353 c-4 -3 -7 -42 -7 -85 0 -63 3 -78 15 -78 10 0 15 10 15
33 0 50 11 52 31 7 27 -59 44 -53 75 25 7 16 9 11 12 -22 2 -29 8 -43 18 -43
11 0 14 18 14 85 0 82 -1 85 -23 85 -19 0 -27 -10 -41 -50 -17 -46 -36 -59
-36 -24 0 46 -50 91 -73 67z"/>
<path d="M5637 4328 c-17 -29 -17 -33 -3 -44 22 -16 21 -46 -1 -42 -11 2 -17
11 -15 21 4 26 -11 20 -25 -9 -15 -33 -9 -44 25 -44 15 0 33 -4 41 -9 9 -6 23
-4 38 6 20 13 21 17 9 27 -10 7 -16 32 -18 66 -4 66 -24 77 -51 28z"/>
<path d="M19917 4283 c-14 -13 -6 -23 18 -23 28 0 34 15 9 24 -19 7 -19 7 -27
-1z"/>
<path d="M19970 4250 c0 -5 5 -10 10 -10 6 0 10 5 10 10 0 6 -4 10 -10 10 -5
0 -10 -4 -10 -10z"/>
<path d="M20000 4219 c0 -5 5 -7 10 -4 6 3 10 8 10 11 0 2 -4 4 -10 4 -5 0
-10 -5 -10 -11z"/>
<path d="M19617 4192 c-18 -20 -22 -32 -9 -32 10 1 45 50 34 50 -5 0 -16 -8
-25 -18z"/>
<path d="M20025 4200 c-3 -5 -1 -10 4 -10 6 0 11 5 11 10 0 6 -2 10 -4 10 -3
0 -8 -4 -11 -10z"/>
<path d="M4803 4133 c-13 -2 -23 -9 -23 -14 0 -5 -10 -9 -23 -9 -22 0 -107
-71 -107 -90 0 -5 -4 -10 -10 -10 -5 0 -10 -8 -10 -17 0 -14 3 -14 20 5 11 12
20 25 20 29 0 11 66 53 83 53 7 0 17 4 23 9 5 5 41 11 81 15 60 5 73 3 81 -10
5 -9 17 -14 26 -13 26 6 24 24 -4 28 -14 1 -28 8 -31 13 -8 12 -91 19 -126 11z"/>
<path d="M8195 4090 c-3 -5 -19 -10 -34 -10 -16 0 -34 -7 -41 -15 -7 -8 -25
-15 -41 -15 -15 0 -31 -4 -34 -10 -3 -5 -26 -10 -51 -10 -24 0 -44 -4 -44 -9
0 -5 -10 -13 -22 -16 -29 -9 -78 -54 -78 -72 0 -7 -8 -22 -17 -33 -14 -16 -30
-20 -84 -20 -47 0 -70 -4 -79 -15 -7 -8 -25 -15 -41 -15 -15 0 -31 -4 -34 -10
-3 -5 -13 -10 -21 -10 -9 0 -22 -7 -30 -15 -9 -8 -26 -15 -39 -15 -13 0 -27
-4 -30 -10 -3 -5 -28 -10 -55 -10 -27 0 -52 5 -55 10 -3 6 -16 10 -29 10 -13
0 -36 11 -52 25 -25 22 -38 25 -106 25 -42 0 -80 -4 -83 -10 -3 -5 -42 -10
-85 -10 -43 0 -81 -4 -85 -9 -9 -16 -66 -41 -92 -41 -14 0 -31 -7 -39 -15 -10
-9 -34 -15 -64 -15 -27 0 -52 -4 -55 -10 -3 -5 -14 -10 -24 -10 -26 0 -74 -53
-60 -67 6 -6 8 -16 5 -22 -9 -14 -43 -14 -51 -1 -3 6 -30 10 -59 10 -43 0 -57
5 -75 24 -13 13 -34 27 -47 30 -13 4 -24 11 -24 16 0 6 -5 10 -12 10 -27 0
-88 35 -88 51 0 9 -7 22 -15 29 -8 7 -15 19 -15 26 0 8 -6 14 -13 14 -7 0 -31
18 -52 40 -36 36 -44 40 -90 40 -42 0 -56 5 -75 25 -13 14 -31 25 -41 25 -10
0 -21 5 -24 10 -3 6 -17 10 -30 10 -13 0 -30 7 -39 15 -16 17 -62 20 -71 6
-32 -53 -228 -53 -260 0 -4 5 -62 9 -131 9 l-125 0 -48 -50 c-45 -47 -51 -50
-92 -48 -39 3 -44 0 -47 -19 -2 -16 2 -23 15 -24 40 -3 68 4 76 17 4 8 16 14
26 14 9 0 32 16 51 35 l34 35 113 0 c69 0 113 -4 113 -10 0 -5 8 -10 19 -10
10 0 24 -7 31 -15 8 -9 30 -15 56 -15 24 0 44 -4 44 -10 0 -5 19 -10 43 -10
33 0 46 5 61 25 30 39 73 34 121 -15 l39 -40 88 0 c92 0 128 -14 128 -50 0 -9
11 -27 25 -40 14 -13 25 -30 25 -37 0 -23 27 -43 58 -43 19 0 35 -8 48 -25 10
-14 26 -25 35 -25 8 0 26 -11 39 -25 14 -15 35 -25 51 -25 14 0 32 -7 39 -15
10 -12 31 -15 99 -13 76 3 86 5 89 22 5 25 56 76 75 76 8 0 20 7 27 15 9 11
32 15 79 15 59 0 68 3 85 25 10 14 27 25 37 25 10 0 21 5 24 10 4 6 67 10 155
10 88 0 151 -4 155 -10 3 -5 15 -10 26 -10 11 0 22 -7 25 -15 5 -12 26 -15
104 -15 74 0 100 4 110 15 7 8 25 15 41 15 15 0 31 5 34 10 3 6 30 10 59 10
35 0 58 5 66 15 7 8 25 15 41 15 15 0 31 5 34 10 3 6 13 10 21 10 8 0 36 23
63 50 27 28 56 50 64 50 8 0 20 7 27 15 7 8 21 15 31 15 11 0 19 5 19 10 0 6
8 10 19 10 10 0 24 7 31 15 7 8 25 15 41 15 15 0 31 5 34 10 3 6 22 10 41 10
32 0 46 -10 120 -85 77 -78 87 -85 123 -85 22 0 44 -6 51 -15 7 -8 21 -15 31
-15 11 0 19 -4 19 -10 0 -5 8 -10 18 -10 20 0 182 -159 182 -178 0 -14 48 -62
62 -62 5 0 8 21 6 47 -2 38 -7 49 -23 52 -24 4 -105 85 -105 104 0 18 -49 63
-77 72 -13 3 -23 11 -23 16 0 5 -14 9 -31 9 -22 0 -41 10 -66 35 -21 21 -45
35 -59 35 -17 0 -45 21 -89 65 -36 36 -72 65 -80 65 -7 0 -17 5 -20 10 -3 6
-15 10 -25 10 -10 0 -22 -4 -25 -10z"/>
<path d="M9364 4082 c-6 -4 -20 -34 -32 -67 -11 -33 -24 -68 -27 -77 -5 -14
-2 -18 13 -18 11 0 22 8 25 20 8 31 65 28 77 -4 7 -18 14 -23 30 -19 13 3 17
10 12 17 -4 6 -16 38 -27 71 -22 72 -44 95 -71 77z m33 -88 c-3 -4 -13 -4 -22
0 -13 5 -14 10 -4 28 l12 23 10 -23 c6 -12 7 -25 4 -28z"/>
<path d="M9494 4077 c-9 -24 0 -162 11 -160 6 1 11 10 13 20 11 67 12 68 35
22 12 -24 27 -44 32 -43 10 1 26 29 41 69 6 15 9 9 13 -25 10 -74 26 -47 26
42 0 71 -2 83 -18 86 -13 3 -24 -10 -41 -50 l-24 -53 -11 28 c-6 15 -15 38
-21 52 -10 27 -47 35 -56 12z"/>
<path d="M9820 4083 c-29 -11 -40 -43 -15 -43 8 0 15 5 15 10 0 6 11 10 25 10
38 0 31 -26 -22 -83 -40 -43 -44 -51 -29 -59 21 -12 101 -6 101 7 0 6 -10 11
-22 13 -29 4 -29 7 2 44 51 60 14 127 -55 101z"/>
<path d="M9970 4083 c-29 -11 -40 -43 -15 -43 8 0 15 5 15 10 0 6 11 10 25 10
38 0 31 -26 -22 -83 -40 -43 -44 -51 -29 -59 21 -12 101 -6 101 7 0 6 -10 11
-22 13 -29 4 -29 7 2 44 51 60 14 127 -55 101z"/>
<path d="M5009 4059 c12 -12 25 -19 28 -15 7 7 -23 36 -38 36 -7 0 -3 -9 10
-21z"/>
<path d="M19582 4015 c0 -16 2 -22 5 -12 2 9 2 23 0 30 -3 6 -5 -1 -5 -18z"/>
<path d="M19600 3957 c0 -27 71 -95 125 -121 64 -30 149 -35 181 -11 10 8 26
15 34 15 18 0 100 80 100 98 0 8 -18 -2 -42 -23 -42 -36 -95 -62 -149 -72 -29
-5 -149 26 -149 39 0 4 -5 8 -11 8 -12 0 -69 60 -69 73 0 13 -20 7 -20 -6z"/>
<path d="M8986 3852 c-3 -6 -18 -13 -32 -16 -15 -4 -40 -21 -57 -38 -30 -29
-30 -30 -7 -23 14 4 30 13 36 21 6 8 18 14 26 14 8 0 18 4 24 9 5 6 39 11 77
13 37 2 68 8 70 13 3 13 -129 19 -137 7z"/>
<path d="M9135 3830 c-8 -14 21 -24 43 -15 16 7 15 8 -3 15 -27 12 -33 12 -40
0z"/>
<path d="M9190 3800 c0 -5 7 -10 16 -10 8 0 12 5 9 10 -3 6 -10 10 -16 10 -5
0 -9 -4 -9 -10z"/>
<path d="M4627 3786 c-8 -20 95 -126 123 -126 10 0 22 -4 25 -10 10 -17 134
-12 177 7 21 9 38 20 38 25 0 4 7 8 15 8 8 0 15 4 15 9 0 5 11 19 24 32 41 39
18 42 -27 3 -23 -19 -54 -38 -70 -41 -15 -3 -30 -10 -33 -14 -3 -5 -30 -9 -60
-9 -49 0 -69 5 -114 32 -8 5 -23 11 -32 14 -10 4 -18 9 -18 13 -1 3 -14 21
-29 39 -23 26 -30 30 -34 18z"/>
<path d="M9225 3770 c3 -5 8 -10 11 -10 2 0 4 5 4 10 0 6 -5 10 -11 10 -5 0
-7 -4 -4 -10z"/>
<path d="M8843 3745 c-7 -8 -13 -22 -13 -31 0 -13 5 -11 20 9 11 14 20 28 20
31 0 10 -15 6 -27 -9z"/>
<path d="M17727 3182 c-32 -33 -34 -46 -8 -37 18 5 20 0 23 -46 2 -31 8 -54
16 -57 9 -3 12 18 12 82 0 47 -4 86 -8 86 -5 0 -20 -13 -35 -28z"/>
<path d="M17095 2900 c-3 -5 1 -10 10 -10 9 0 13 5 10 10 -3 6 -8 10 -10 10
-2 0 -7 -4 -10 -10z"/>
<path d="M17125 2870 c3 -5 8 -10 11 -10 2 0 4 5 4 10 0 6 -5 10 -11 10 -5 0
-7 -4 -4 -10z"/>
<path d="M16726 2613 c-8 -8 20 -51 53 -80 46 -40 50 -43 63 -43 7 0 22 -7 32
-15 29 -22 115 -19 171 6 51 22 130 95 115 104 -5 3 -22 -5 -37 -19 -15 -14
-52 -38 -83 -52 -45 -21 -64 -25 -104 -20 -27 3 -54 10 -60 16 -5 5 -18 10
-28 10 -11 0 -41 22 -67 49 -27 28 -52 47 -55 44z"/>
<path d="M10240 2330 c-12 -7 -39 -75 -54 -132 -5 -22 -3 -28 10 -28 9 0 18 9
21 20 4 15 14 20 39 20 20 0 34 -5 34 -12 0 -23 16 -39 31 -33 13 5 11 17 -10
85 -25 78 -43 97 -71 80z m30 -71 c0 -10 -7 -19 -15 -19 -15 0 -21 31 -9 43
11 10 24 -3 24 -24z"/>
<path d="M10374 2327 c-3 -8 -4 -47 -2 -88 3 -80 21 -98 26 -27 l3 43 23 -44
c12 -25 27 -46 33 -48 13 -5 43 47 43 73 0 29 13 7 19 -33 4 -21 11 -37 16
-36 13 4 19 153 6 166 -14 14 -51 -2 -51 -23 0 -10 -4 -22 -10 -25 -5 -3 -10
-15 -10 -26 0 -32 -18 -21 -31 19 -6 20 -16 43 -22 50 -13 16 -36 15 -43 -1z"/>
<path d="M9878 2083 c-16 -2 -28 -9 -28 -14 0 -5 -11 -9 -25 -9 -14 0 -25 -4
-25 -9 0 -5 -9 -13 -20 -16 -11 -3 -20 -12 -20 -18 0 -7 -13 -23 -30 -37 -29
-24 -40 -50 -20 -50 6 0 10 4 10 9 0 15 53 71 67 71 7 0 13 5 13 10 0 6 9 10
19 10 11 0 22 4 25 9 3 4 37 11 76 13 69 5 90 12 77 24 -8 8 -85 13 -119 7z"/>
<path d="M10012 2048 c5 -15 37 -18 41 -3 1 6 -9 12 -22 13 -16 3 -22 -1 -19
-10z"/>
<path d="M10070 2020 c0 -5 5 -10 10 -10 6 0 10 5 10 10 0 6 -4 10 -10 10 -5
0 -10 -4 -10 -10z"/>
<path d="M10100 2000 c0 -5 5 -10 11 -10 5 0 7 5 4 10 -3 6 -8 10 -11 10 -2 0
-4 -4 -4 -10z"/>
<path d="M10125 1970 c3 -5 8 -10 11 -10 2 0 4 5 4 10 0 6 -5 10 -11 10 -5 0
-7 -4 -4 -10z"/>
<path d="M9682 1790 c0 -14 2 -19 5 -12 2 6 2 18 0 25 -3 6 -5 1 -5 -13z"/>
<path d="M9700 1734 c0 -17 9 -29 65 -85 21 -21 47 -39 56 -39 10 0 21 -4 24
-10 3 -5 39 -10 80 -10 41 0 77 5 80 10 3 6 14 10 24 10 20 0 111 80 111 98 0
18 -8 15 -33 -11 -19 -21 -45 -36 -109 -68 -26 -13 -102 -11 -150 4 -26 7 -61
32 -95 64 -31 31 -53 46 -53 37z"/>
</g>
</svg>
